<svg width="655" height="786" viewBox="0 0 655 786" fill="none" xmlns="http://www.w3.org/2000/svg">
<path d="M245.604 327.539L284.901 369.291L327.472 409.407H245.604V327.539Z" fill="white"/>
<path d="M204.67 450.341H163.736V491.275H204.67V450.341ZM327.472 409.407H204.67V491.275H327.472V409.407ZM245.604 450.341V327.539H163.736V450.341H245.604ZM409.34 327.539C409.34 372.753 372.687 409.407 327.472 409.407V491.275C417.901 491.275 491.209 417.968 491.209 327.539H409.34ZM327.472 245.67C372.687 245.67 409.34 282.324 409.34 327.539H491.209C491.209 237.109 417.901 163.802 327.472 163.802V245.67ZM327.472 163.802C237.043 163.802 163.736 237.109 163.736 327.539H245.604C245.604 282.324 282.258 245.67 327.472 245.67V163.802Z" fill="white"/>
<path d="M40.9341 327.538C40.9341 169.288 169.222 41 327.473 41V41C485.723 41 614.011 169.288 614.011 327.538V327.538C614.011 485.789 485.723 614.077 327.473 614.077H40.9341V327.538Z" stroke="white" stroke-width="81.8681"/>
<rect x="81.8679" y="491.275" width="163.736" height="81.8681" fill="white"/>
<rect x="81.8679" y="573.143" width="81.8681" height="81.8681" fill="black"/>
<circle cx="327.472" cy="327.539" r="81.8681" fill="black"/>
<circle cx="40.9341" cy="745.066" r="40.9341" fill="white"/>
</svg>
