<svg width="224" height="126" viewBox="0 0 224 126" fill="none" xmlns="http://www.w3.org/2000/svg">
<path d="M13.9893 66.3857C13.0615 65.9137 12.4023 65.1976 12.0117 64.2373C11.5072 62.7236 11.8083 60.9577 12.915 58.9395C14.0381 56.9212 15.625 54.8704 17.6758 52.7871C19.7266 50.7038 21.9157 48.8239 24.2432 47.1475C26.5869 45.4548 28.7354 44.2015 30.6885 43.3877C32.6416 42.5576 34.082 42.3867 35.0098 42.875C35.7259 43.3796 35.9945 44.1445 35.8154 45.1699C35.6527 46.1953 35.3027 47.2207 34.7656 48.2461C34.2448 49.2715 33.8216 50.0446 33.4961 50.5654L24.5605 65.1162C24.2025 65.7184 23.8851 66.2474 23.6084 66.7031C21.9808 69.2747 22.29 69.0794 24.5361 66.1172C24.6663 65.9544 24.7965 65.7917 24.9268 65.6289C25.708 64.6035 26.9857 62.9922 28.7598 60.7949C30.5501 58.5977 32.5114 56.3109 34.6436 53.9346C36.792 51.542 38.7858 49.5645 40.625 48.002C42.4805 46.4232 43.8558 45.7559 44.751 46C45.4997 46.3418 45.8415 47.123 45.7764 48.3438C45.7275 49.5482 45.4508 50.9642 44.9463 52.5918C44.458 54.2194 43.929 55.8145 43.3594 57.377C42.8385 58.8418 42.4316 60.0788 42.1387 61.0879C41.862 62.0807 41.8457 62.6504 42.0898 62.7969C42.7246 62.9271 44.0592 62.2598 46.0938 60.7949C48.1283 59.3138 50.3825 57.5316 52.8564 55.4482C55.3467 53.3649 57.5846 51.4606 59.5703 49.7354C61.3607 48.1891 62.5732 47.1637 63.208 46.6592C63.2568 46.6104 63.3219 46.5615 63.4033 46.5127C63.7614 46.2197 64.2497 45.8617 64.8682 45.4385C65.5029 44.999 66.1296 44.641 66.748 44.3643C67.3828 44.0713 67.8711 43.998 68.2129 44.1445C68.7174 44.4212 68.8639 44.9827 68.6523 45.8291C68.457 46.6755 68.1234 47.5625 67.6514 48.4902C67.1794 49.418 66.805 50.1097 66.5283 50.5654C66.4795 50.6305 66.4469 50.6875 66.4307 50.7363C65.096 52.9824 63.0046 56.2051 60.1562 60.4043C58.3171 63.1224 56.486 65.8812 54.6631 68.6807C52.8564 71.4639 51.3265 73.9541 50.0732 76.1514C48.82 78.3486 48.1283 79.9355 47.998 80.9121C47.9655 81.319 48.0469 81.5306 48.2422 81.5469C48.4375 81.5632 48.6816 81.5143 48.9746 81.4004C49.0072 81.3841 49.0479 81.376 49.0967 81.376C49.3245 81.2946 49.5036 81.3109 49.6338 81.4248C49.7803 81.5387 49.8291 81.6771 49.7803 81.8398C49.7477 82.0189 49.5768 82.1491 49.2676 82.2305C48.9583 82.3444 48.6084 82.4176 48.2178 82.4502C47.8271 82.4827 47.4935 82.377 47.2168 82.1328C46.7285 81.5143 46.9157 80.1797 47.7783 78.1289C48.6572 76.0944 49.9268 73.6937 51.5869 70.9268C53.2471 68.1436 55.0049 65.3522 56.8604 62.5527C58.7158 59.7533 60.3678 57.2956 61.8164 55.1797C63.0371 53.4056 63.916 52.0954 64.4531 51.249C64.4694 51.2327 64.4857 51.2083 64.502 51.1758C64.6322 50.9805 64.8682 50.6061 65.21 50.0527C65.5518 49.4993 65.9017 48.8971 66.2598 48.2461C66.6341 47.5788 66.9271 46.9928 67.1387 46.4883C67.3665 45.9837 67.4235 45.6908 67.3096 45.6094C67.1794 45.5605 66.9108 45.6582 66.5039 45.9023C66.1133 46.1302 65.6738 46.4232 65.1855 46.7812C64.7135 47.123 64.2822 47.4486 63.8916 47.7578C63.5173 48.0671 63.2731 48.2705 63.1592 48.3682C62.6872 48.7588 61.9466 49.4098 60.9375 50.3213C59.5866 51.5094 57.9753 52.901 56.1035 54.4961C54.2318 56.0911 52.3193 57.6374 50.3662 59.1348C48.4294 60.6322 46.6797 61.8285 45.1172 62.7236C43.5547 63.6188 42.4072 63.9525 41.6748 63.7246C41.0563 63.4479 40.7633 62.8294 40.7959 61.8691C40.8447 60.9089 41.0807 59.7614 41.5039 58.4268C41.9271 57.0921 42.4072 55.7249 42.9443 54.3252C43.6442 52.5511 44.1732 50.9967 44.5312 49.6621C44.8893 48.3275 44.7998 47.5218 44.2627 47.2451C43.693 47.0824 42.7165 47.6276 41.333 48.8809C39.9495 50.1178 38.3626 51.7373 36.5723 53.7393C34.7982 55.7412 33.0404 57.8083 31.2988 59.9404C29.5573 62.0726 28.0355 63.9525 26.7334 65.5801C25.7243 66.8496 24.9674 67.7855 24.4629 68.3877C24.3001 68.583 23.9909 68.9248 23.5352 69.4131C23.0957 69.9014 22.6318 70.3327 22.1436 70.707C21.6715 71.0814 21.3135 71.2116 21.0693 71.0977C20.7113 70.821 20.6706 70.2594 20.9473 69.4131C21.2402 68.5505 21.6309 67.6553 22.1191 66.7275C22.6074 65.7998 22.998 65.0999 23.291 64.6279C23.3398 64.5465 23.3805 64.4814 23.4131 64.4326L32.3486 49.8818C32.5277 49.6051 32.8532 49.0192 33.3252 48.124C33.8135 47.2288 34.2122 46.3337 34.5215 45.4385C34.8307 44.527 34.8063 43.9248 34.4482 43.6318C33.7646 43.29 32.5439 43.5505 30.7861 44.4131C29.0446 45.2594 27.0915 46.4964 24.9268 48.124C22.762 49.7516 20.7113 51.542 18.7744 53.4951C16.8376 55.4482 15.332 57.3444 14.2578 59.1836C13.1999 61.0228 12.8906 62.5771 13.3301 63.8467C13.3464 63.8955 13.3789 63.9688 13.4277 64.0664C13.4766 64.1641 13.5254 64.2536 13.5742 64.335C13.6393 64.4163 13.7044 64.4489 13.7695 64.4326C13.8997 64.3675 14.0299 64.3512 14.1602 64.3838C14.2904 64.4163 14.4043 64.4814 14.502 64.5791C15.0228 65.1976 15.2018 65.7184 15.0391 66.1416C14.8763 66.5648 14.5264 66.6462 13.9893 66.3857ZM65.9668 60.917C66.3737 60.6891 66.7236 60.7135 67.0166 60.9902C67.3096 61.2507 67.4398 61.5762 67.4072 61.9668C67.391 62.3574 67.1305 62.6341 66.626 62.7969C66.0563 62.9922 65.4541 63.57 64.8193 64.5303C64.1846 65.4906 63.6312 66.5241 63.1592 67.6309C62.7035 68.7214 62.4349 69.5758 62.3535 70.1943C62.2721 71.4313 62.5 72.0335 63.0371 72.001C63.5742 71.9684 64.4857 71.4476 65.7715 70.4385C67.0573 69.4294 68.4814 68.2493 70.0439 66.8984C71.5902 65.5475 73.0469 64.3431 74.4141 63.2852C75.7812 62.2109 76.8066 61.5924 77.4902 61.4297C78.4017 61.5273 78.8411 61.8122 78.8086 62.2842C78.776 62.7399 78.5889 63.2607 78.2471 63.8467C78.1982 63.9281 78.1494 64.0176 78.1006 64.1152C77.4495 65.3685 76.7008 66.5811 75.8545 67.7529C75.5127 68.2575 75.179 68.762 74.8535 69.2666C74.4466 69.9014 74.0479 70.5524 73.6572 71.2197C73.3805 71.6917 73.0957 72.1556 72.8027 72.6113C72.7539 72.6927 72.7051 72.7741 72.6562 72.8555C72.526 73.0345 72.404 73.2217 72.29 73.417C72.1924 73.6123 72.1761 73.7995 72.2412 73.9785C72.29 74.2389 72.2168 74.4424 72.0215 74.5889C71.5983 74.8981 71.2891 75.1829 71.0938 75.4434C70.8984 75.7038 70.7194 75.9967 70.5566 76.3223C70.4264 76.5827 70.2474 76.8919 70.0195 77.25C69.8405 77.5592 69.5719 78.015 69.2139 78.6172C68.4814 79.8867 67.5618 81.4004 66.4551 83.1582C65.3646 84.9323 64.266 86.4704 63.1592 87.7725C62.0687 89.0745 61.1735 89.6686 60.4736 89.5547C60.1318 89.457 59.9528 89.2373 59.9365 88.8955C59.904 88.57 59.9447 88.2201 60.0586 87.8457C60.1725 87.4714 60.2865 87.154 60.4004 86.8936C60.4167 86.8447 60.4329 86.7959 60.4492 86.7471C61.3444 84.5986 62.6139 82.5153 64.2578 80.4971C65.9017 78.4788 67.6107 76.7292 69.3848 75.248C69.7428 74.9551 70.0114 74.6784 70.1904 74.418C70.3857 74.1738 70.5892 73.8809 70.8008 73.5391C70.8496 73.4577 70.8984 73.3844 70.9473 73.3193L75.8057 65.5312C76.6683 64.1478 77.0101 63.391 76.8311 63.2607C76.652 63.1305 76.123 63.4154 75.2441 64.1152C74.3652 64.7988 73.2992 65.6859 72.0459 66.7764C70.4183 68.1761 68.7988 69.5026 67.1875 70.7559C65.5762 72.0091 64.3066 72.7415 63.3789 72.9531C62.6139 73.0833 61.9954 72.9124 61.5234 72.4404C61.0677 71.9847 60.8968 71.1058 61.0107 69.8037C61.2223 68.2087 61.8083 66.6055 62.7686 64.9941C63.7451 63.3828 64.8112 62.0238 65.9668 60.917ZM63.5742 84.916C63.5905 84.8835 63.6312 84.8265 63.6963 84.7451C63.9079 84.4196 64.2415 83.915 64.6973 83.2314C65.153 82.5641 65.6169 81.8561 66.0889 81.1074C66.5771 80.375 66.9678 79.7484 67.2607 79.2275C67.5537 78.723 67.6432 78.4788 67.5293 78.4951C67.3828 78.5602 67.041 78.9427 66.5039 79.6426C65.9668 80.3424 65.3564 81.1725 64.6729 82.1328C64.0055 83.0931 63.3952 83.9964 62.8418 84.8428C62.2884 85.6891 61.9222 86.2913 61.7432 86.6494C61.4339 87.4144 61.2793 87.8783 61.2793 88.041C61.2793 88.2038 61.377 88.1631 61.5723 87.9189C61.7676 87.6911 62.0036 87.3656 62.2803 86.9424C62.5732 86.5355 62.8337 86.1367 63.0615 85.7461C63.3057 85.3555 63.4766 85.0788 63.5742 84.916ZM94.3604 66.0439C93.6117 65.4417 93.5465 64.6117 94.165 63.5537C94.7835 62.4958 95.7438 61.389 97.0459 60.2334C98.348 59.0615 99.6338 58.0117 100.903 57.084C102.189 56.14 103.109 55.4808 103.662 55.1064C103.727 55.0576 103.784 55.0169 103.833 54.9844C104.663 54.3984 105.941 53.5439 107.666 52.4209C109.408 51.2979 111.353 50.1178 113.501 48.8809C115.666 47.6439 117.79 46.5778 119.873 45.6826C121.973 44.7874 123.796 44.2747 125.342 44.1445C126.904 43.998 127.954 44.4619 128.491 45.5361C128.914 46.7406 128.589 48.6204 127.515 51.1758C126.44 53.7311 124.984 56.5713 123.145 59.6963C121.305 62.8213 119.458 65.8405 117.603 68.7539C116.235 70.9512 115.047 72.888 114.038 74.5645C113.045 76.2409 112.41 77.4779 112.134 78.2754C111.857 79.0892 112.109 79.2926 112.891 78.8857C114.567 77.9417 116.333 76.7454 118.188 75.2969C120.06 73.8646 121.745 72.5218 123.242 71.2686C124.821 69.9665 126.522 68.5098 128.345 66.8984C131.274 64.2943 134.318 61.7471 137.476 59.2568C140.633 56.7503 143.636 54.8542 146.484 53.5684C148.779 52.6081 150.317 52.3883 151.099 52.9092C151.88 53.43 152.205 54.374 152.075 55.7412C151.945 57.1084 151.676 58.5732 151.27 60.1357C151.188 60.4775 151.107 60.8112 151.025 61.1367C150.96 61.4134 150.887 61.7389 150.806 62.1133C150.464 63.4805 150.057 65.2546 149.585 67.4355C149.113 69.6165 148.698 71.8545 148.34 74.1494C147.982 76.4606 147.811 78.4788 147.827 80.2041C147.86 81.9456 148.21 83.0524 148.877 83.5244C149.642 83.8825 150.618 83.6221 151.807 82.7432C153.011 81.8643 154.167 80.8145 155.273 79.5938C156.396 78.3893 157.202 77.486 157.69 76.8838C157.739 76.835 157.78 76.7861 157.812 76.7373C161.93 71.708 165.853 66.3369 169.58 60.624C173.307 54.9111 176.864 49.2715 180.249 43.7051C180.428 43.4447 180.632 43.3307 180.859 43.3633C181.087 43.3796 181.258 43.4935 181.372 43.7051C181.486 43.9004 181.47 44.1445 181.323 44.4375C177.873 50.1178 174.202 55.8714 170.312 61.6982C166.439 67.5251 162.37 72.9857 158.105 78.0801C157.731 78.5358 157.145 79.2113 156.348 80.1064C155.55 81.0016 154.647 81.8968 153.638 82.792C152.645 83.6872 151.652 84.3708 150.659 84.8428C149.683 85.3148 148.836 85.3473 148.12 84.9404C147.225 84.3219 146.712 83.0687 146.582 81.1807C146.468 79.3089 146.574 77.1523 146.899 74.7109C147.241 72.2695 147.656 69.9095 148.145 67.6309C148.649 65.3522 149.08 63.5049 149.438 62.0889C149.552 61.5843 149.65 61.1693 149.731 60.8438C149.829 60.4368 149.935 59.9974 150.049 59.5254C150.374 58.4349 150.602 57.3932 150.732 56.4004C150.863 55.3913 150.675 54.6914 150.171 54.3008C149.666 53.8939 148.608 54.0566 146.997 54.7891C144.312 56.0098 141.455 57.8083 138.428 60.1846C135.4 62.5609 132.446 65.0186 129.565 67.5576C127.45 69.4131 125.488 71.0732 123.682 72.5381C123.6 72.6032 123.494 72.6927 123.364 72.8066C122.762 73.2949 121.859 74.0029 120.654 74.9307C119.45 75.8747 118.164 76.8105 116.797 77.7383C115.43 78.6823 114.193 79.3984 113.086 79.8867C111.995 80.3913 111.255 80.4482 110.864 80.0576C110.539 79.6344 110.685 78.723 111.304 77.3232C111.922 75.9235 112.834 74.1982 114.038 72.1475C115.243 70.113 116.569 67.9238 118.018 65.5801C119.727 62.8457 121.362 60.152 122.925 57.499C124.487 54.8298 125.7 52.4697 126.562 50.4189C127.441 48.3682 127.71 46.887 127.368 45.9756C126.994 45.2269 126.09 45.0153 124.658 45.3408C123.226 45.6501 121.509 46.293 119.507 47.2695C117.521 48.2298 115.495 49.3203 113.428 50.541C111.377 51.7454 109.538 52.8766 107.91 53.9346C106.299 54.9925 105.143 55.7575 104.443 56.2295C104.102 56.4574 103.385 56.9619 102.295 57.7432C101.204 58.5081 100.033 59.387 98.7793 60.3799C97.526 61.3727 96.5007 62.3086 95.7031 63.1875C94.9056 64.0664 94.6289 64.7093 94.873 65.1162C95.1335 65.3929 95.7194 65.4173 96.6309 65.1895C97.5586 64.9453 98.4863 64.6279 99.4141 64.2373C100.358 63.8467 101.009 63.5456 101.367 63.334C101.481 63.2526 101.546 63.1794 101.562 63.1143C101.579 63.0329 101.571 62.9596 101.538 62.8945C101.522 62.8294 101.514 62.7725 101.514 62.7236C101.514 62.6585 101.538 62.6016 101.587 62.5527C101.652 62.4876 101.758 62.4144 101.904 62.333C102.393 62.154 102.791 62.1377 103.101 62.2842C103.41 62.4144 103.589 62.6178 103.638 62.8945C103.687 63.1712 103.556 63.4316 103.247 63.6758C102.531 64.1803 101.636 64.7256 100.562 65.3115C99.4873 65.8975 98.3887 66.3044 97.2656 66.5322C96.1589 66.7601 95.1904 66.5973 94.3604 66.0439ZM177.173 71.4395C176.034 72.5462 174.959 72.9531 173.95 72.6602C172.957 72.3672 172.477 71.5046 172.51 70.0723C172.542 68.6237 173.56 66.7357 175.562 64.4082C176.326 63.5781 176.937 63.098 177.393 62.9678C177.767 62.8376 178.052 62.8538 178.247 63.0166C178.442 63.1631 178.451 63.4642 178.271 63.9199C177.93 64.278 177.653 64.4977 177.441 64.5791C177.23 64.6605 177.059 64.693 176.929 64.6768C176.864 64.6768 176.799 64.6849 176.733 64.7012C176.685 64.7012 176.636 64.7337 176.587 64.7988C175.041 66.638 174.097 68.1191 173.755 69.2422C173.429 70.3652 173.478 71.1221 173.901 71.5127C174.325 71.9196 174.894 71.9359 175.61 71.5615C175.936 71.3662 176.302 71 176.709 70.4629C177.116 69.9258 177.45 69.3968 177.71 68.876C177.759 68.7946 177.799 68.7295 177.832 68.6807C177.881 68.6156 177.905 68.5586 177.905 68.5098C177.905 68.4609 177.865 68.404 177.783 68.3389C177.49 68.0459 177.238 67.6634 177.026 67.1914C176.815 66.7031 176.774 66.2637 176.904 65.873C177.035 65.6126 177.279 65.4987 177.637 65.5312C177.995 65.5638 178.337 65.751 178.662 66.0928C178.988 66.4346 179.159 66.9473 179.175 67.6309C179.207 68.1191 179.378 68.4609 179.688 68.6562C179.997 68.8353 180.339 68.9004 180.713 68.8516C181.087 68.7865 181.396 68.64 181.641 68.4121C181.852 68.2168 181.999 68.168 182.08 68.2656C182.178 68.347 182.17 68.4935 182.056 68.7051C181.942 68.9167 181.689 69.112 181.299 69.291C180.68 69.5352 180.2 69.6247 179.858 69.5596C179.533 69.4945 179.289 69.4049 179.126 69.291C179.012 69.1934 178.906 69.1527 178.809 69.1689C178.711 69.1689 178.613 69.2666 178.516 69.4619C178.353 69.7549 178.141 70.0967 177.881 70.4873C177.637 70.8779 177.401 71.1953 177.173 71.4395ZM185.718 60.6484C185.262 60.0951 185.002 59.5579 184.937 59.0371C184.904 58.2559 185.14 57.7025 185.645 57.377C186.149 57.0514 186.751 57.1572 187.451 57.6943C187.712 57.9873 187.874 58.3535 187.939 58.793C188.021 59.2324 187.948 59.737 187.72 60.3066C187.622 60.502 187.581 60.6566 187.598 60.7705C187.63 60.8682 187.752 60.9658 187.964 61.0635C189.25 61.6331 190.137 62.2923 190.625 63.041C191.113 63.7897 190.894 64.7744 189.966 65.9951C189.478 66.6299 189.014 67.4111 188.574 68.3389C188.135 69.2503 187.996 70.056 188.159 70.7559C188.354 71.2116 188.867 71.3174 189.697 71.0732C190.544 70.8454 191.471 70.4466 192.48 69.877C193.49 69.3073 194.36 68.7539 195.093 68.2168C195.321 68.0215 195.5 67.932 195.63 67.9482C195.76 67.9482 195.825 68.0133 195.825 68.1436C195.841 68.2738 195.776 68.4121 195.63 68.5586C193.465 70.4629 191.52 71.6104 189.795 72.001C188.07 72.3916 187.036 72.0254 186.694 70.9023C186.353 69.7793 187.166 67.9076 189.136 65.2871C189.689 64.5221 189.771 63.9036 189.38 63.4316C188.989 62.9434 188.395 62.4795 187.598 62.04C187.565 62.0238 187.541 62.0075 187.524 61.9912C187.362 61.8773 187.215 61.8366 187.085 61.8691C186.971 61.8854 186.816 62.0319 186.621 62.3086C186.426 62.569 186.279 62.7562 186.182 62.8701C185.921 63.1956 185.693 63.3747 185.498 63.4072C185.303 63.4235 185.156 63.3584 185.059 63.2119C184.977 63.0654 184.953 62.9027 184.985 62.7236C185.034 62.5609 185.116 62.4714 185.229 62.4551C185.343 62.4388 185.579 62.2272 185.938 61.8203C186.1 61.5924 186.141 61.389 186.06 61.21C185.994 61.0146 185.881 60.8275 185.718 60.6484ZM186.89 59.6963C186.955 59.2894 186.914 58.9313 186.768 58.6221C186.621 58.3128 186.458 58.1582 186.279 58.1582C186.1 58.1419 186.019 58.3942 186.035 58.915C186.051 58.9964 186.1 59.1348 186.182 59.3301C186.263 59.5091 186.353 59.68 186.45 59.8428C186.564 60.0055 186.67 60.0869 186.768 60.0869C186.8 60.0869 186.816 60.0706 186.816 60.0381C186.833 59.9893 186.841 59.9404 186.841 59.8916C186.857 59.8265 186.873 59.7614 186.89 59.6963ZM191.479 76.3711C191.284 76.5501 191.089 76.5827 190.894 76.4688C190.698 76.3711 190.56 76.2002 190.479 75.9561C190.381 75.7119 190.397 75.4759 190.527 75.248C190.609 75.069 192.114 72.6195 195.044 67.8994C195.06 67.818 195.101 67.7367 195.166 67.6553C195.231 67.5576 195.296 67.4762 195.361 67.4111C197.347 64.2048 199.487 60.8193 201.782 57.2549C204.077 53.6742 206.16 50.5492 208.032 47.8799C209.904 45.2106 211.182 43.6318 211.865 43.1436C212.533 42.9808 212.939 43.0703 213.086 43.4121C213.249 43.7539 213.257 44.2178 213.11 44.8037C212.98 45.3734 212.801 45.9268 212.573 46.4639C212.362 46.9847 212.207 47.3428 212.109 47.5381C210.824 50.126 208.822 53.2917 206.104 57.0352C203.402 60.7786 200.195 64.4082 196.484 67.9238C195.964 68.7539 195.475 69.5189 195.02 70.2188C194.434 71.0977 194.043 71.7324 193.848 72.123C193.636 72.5137 193.791 72.5137 194.312 72.123C194.816 71.7487 195.858 70.8372 197.437 69.3887C201.912 65.222 205.192 62.7725 207.275 62.04C207.601 61.9587 207.812 61.9993 207.91 62.1621C208.024 62.3086 208.105 62.5039 208.154 62.748C208.171 62.7806 208.179 62.8213 208.179 62.8701C208.244 63.391 207.788 63.9606 206.812 64.5791C205.835 65.1813 204.81 65.7347 203.735 66.2393C203.166 66.516 202.694 66.7601 202.319 66.9717C202.043 67.1995 201.839 67.4193 201.709 67.6309C201.595 67.8424 201.473 68.1354 201.343 68.5098C201.082 69.1608 200.854 69.9258 200.659 70.8047C200.464 71.6673 200.488 72.4242 200.732 73.0752C200.977 73.7262 201.636 74.0436 202.71 74.0273C202.905 74.0111 203.052 74.0518 203.149 74.1494C203.263 74.2471 203.288 74.3529 203.223 74.4668C203.158 74.5807 202.97 74.654 202.661 74.6865C201.034 74.7354 199.992 74.3366 199.536 73.4902C199.08 72.6439 199.048 71.5452 199.438 70.1943C199.585 69.6735 199.618 69.3968 199.536 69.3643C199.471 69.3154 199.219 69.4945 198.779 69.9014C197.64 70.943 196.403 72.0417 195.068 73.1973C193.75 74.3691 192.733 75.2643 192.017 75.8828C191.707 76.1595 191.528 76.3223 191.479 76.3711ZM201.025 60.6973C200.309 61.7878 199.902 62.4551 199.805 62.6992C199.723 62.9271 200.163 62.4714 201.123 61.332C203.385 58.679 205.322 56.1481 206.934 53.7393C208.545 51.3141 209.798 49.2064 210.693 47.416C211.035 46.7324 211.263 46.2441 211.377 45.9512C211.491 45.6582 211.515 45.5117 211.45 45.5117C211.401 45.5117 211.296 45.6094 211.133 45.8047C210.986 45.9837 210.807 46.2197 210.596 46.5127C210.384 46.8057 210.173 47.0986 209.961 47.3916C209.863 47.5218 209.774 47.6439 209.692 47.7578C207.218 51.2083 204.329 55.5215 201.025 60.6973ZM206.86 71.3174C206.991 71.236 207.145 71.0081 207.324 70.6338C207.503 70.2594 207.707 69.8037 207.935 69.2666C208.358 68.1924 208.854 67.1426 209.424 66.1172C209.993 65.0918 210.636 64.514 211.353 64.3838C211.58 64.4326 211.751 64.5465 211.865 64.7256C211.979 64.8883 211.947 65.0837 211.768 65.3115C211.491 65.6859 211.247 65.987 211.035 66.2148C210.84 66.4264 210.636 66.638 210.425 66.8496C210.213 67.0612 209.953 67.3298 209.644 67.6553C209.432 68.1924 209.229 68.7295 209.033 69.2666C208.952 69.527 208.862 69.7793 208.765 70.0234C208.716 70.2025 208.683 70.3327 208.667 70.4141C208.667 70.4792 208.691 70.5117 208.74 70.5117C208.805 70.5117 208.887 70.4954 208.984 70.4629C209.001 70.4466 209.017 70.4385 209.033 70.4385C209.359 70.3408 209.587 70.349 209.717 70.4629C209.847 70.5605 209.888 70.6908 209.839 70.8535C209.79 71.0163 209.668 71.1546 209.473 71.2686C209.294 71.3662 209.115 71.4232 208.936 71.4395C208.724 71.472 208.521 71.5534 208.325 71.6836C208.211 71.765 208.097 71.887 207.983 72.0498C207.869 72.2126 207.772 72.3672 207.69 72.5137C207.072 73.7018 206.193 74.8167 205.054 75.8584C203.914 76.9001 202.563 77.5267 201.001 77.7383C199.78 77.8522 199.186 77.6976 199.219 77.2744C199.251 76.8512 199.683 76.2734 200.513 75.541C201.326 74.8249 202.319 74.0843 203.491 73.3193C204.663 72.5544 205.786 71.887 206.86 71.3174ZM205.615 73.6367C205.697 73.5391 205.786 73.4251 205.884 73.2949C205.981 73.181 206.063 73.0671 206.128 72.9531C206.193 72.8392 206.226 72.7497 206.226 72.6846C206.226 72.6357 206.177 72.6276 206.079 72.6602C205.721 72.8229 205.233 73.1159 204.614 73.5391C203.979 73.9785 203.337 74.4424 202.686 74.9307C202.035 75.4352 201.514 75.8665 201.123 76.2246C200.716 76.5827 200.562 76.7699 200.659 76.7861C201.196 76.8187 201.969 76.5176 202.979 75.8828C203.988 75.2643 204.867 74.5156 205.615 73.6367Z" fill="white"/>
</svg>
