<svg width="641" height="222" viewBox="0 0 641 222" fill="none" xmlns="http://www.w3.org/2000/svg">
<path d="M63.0004 35.4C52.8004 39 44.5004 41.9 38.1004 44.1C31.7004 46.3 26.5004 48.1 22.5004 49.5C18.7004 50.7 15.7004 51.6 13.5004 52.2C11.5004 52.6 9.70039 52.8 8.10039 52.8C3.30039 52.8 0.900391 51.6 0.900391 49.2C0.900391 47.8 1.60039 46.2 3.00039 44.4C4.40039 42.6 5.90039 40.9 7.50039 39.3C9.30039 37.7 11.0004 36.3 12.6004 35.1C14.2004 33.9 15.3004 33.2 15.9004 33C24.1004 27.4 33.1004 22.6 42.9004 18.6C52.7004 14.4 62.8004 11 73.2004 8.39998C83.8004 5.59998 94.5004 3.49999 105.3 2.09999C116.3 0.699986 127.1 -1.64509e-05 137.7 -1.64509e-05C144.1 -1.64509e-05 150.8 0.299986 157.8 0.89999C164.8 1.49999 171.5 2.2 177.9 3C183.3 3.79999 189.3 4.89999 195.9 6.29999C202.7 7.69999 209.6 9.49999 216.6 11.7C223.6 13.9 230.4 16.6 237 19.8C243.6 22.8 249.5 26.4 254.7 30.6C259.9 34.8 264 39.7 267 45.3C270.2 50.7 271.8 56.8 271.8 63.6C271.8 73.4 269.1 82.1 263.7 89.7C258.5 97.1 251.7 103.5 243.3 108.9C234.9 114.3 225.4 118.9 214.8 122.7C204.4 126.5 193.9 129.7 183.3 132.3C172.9 134.7 162.9 136.7 153.3 138.3C143.9 139.7 136.1 140.8 129.9 141.6C129.7 147.8 129.2 155.1 128.4 163.5C127.8 171.9 126.9 179.9 125.7 187.5C124.5 195.1 123 201.5 121.2 206.7C119.4 212.1 117.2 214.8 114.6 214.8C113 214.8 111.7 213.2 110.7 210C107.9 202.8 106.2 194 105.6 183.6C105.2 173.2 105 160.3 105 144.9C96.2004 145.9 87.5004 146.8 78.9004 147.6C70.5004 148.4 62.1004 149.2 53.7004 150C53.5004 149.8 52.1004 149.8 49.5004 150C47.1004 150.2 44.0004 150.5 40.2004 150.9C36.4004 151.1 32.3004 151.3 27.9004 151.5C23.7004 151.7 19.7004 151.7 15.9004 151.5C12.3004 151.3 9.20039 150.8 6.60039 150C4.20039 149.2 3.00039 148 3.00039 146.4C3.00039 144.8 5.30039 143.3 9.90039 141.9C14.7004 140.5 20.2004 139.3 26.4004 138.3C32.8004 137.3 39.0004 136.5 45.0004 135.9C51.0004 135.3 55.4004 134.8 58.2004 134.4C65.8004 134 73.5004 133.3 81.3004 132.3C89.1004 131.1 97.1004 129.9 105.3 128.7C105.9 127.1 106.3 124.3 106.5 120.3C106.9 116.3 107.3 111.8 107.7 106.8C108.1 101.8 108.5 96.7 108.9 91.5C109.5 86.1 110.2 81.2 111 76.8C111.8 72.4 112.8 68.8 114 66C115.4 63 117.2 61.5 119.4 61.5C123.8 61.5 127.2 62.7 129.6 65.1C132 67.5 133.6 70.6 134.4 74.4C135.4 78.2 135.8 82.4 135.6 87C135.6 91.6 135.3 96.3 134.7 101.1C134.1 105.7 133.4 110.1 132.6 114.3C131.8 118.3 131.3 121.6 131.1 124.2C135.5 123.6 141.5 122.7 149.1 121.5C156.9 120.1 165.2 118.4 174 116.4C182.8 114.2 191.7 111.6 200.7 108.6C209.7 105.6 217.8 102 225 97.8C232.4 93.6 238.4 88.9 243 83.7C247.6 78.3 249.9 72.2 249.9 65.4C249.9 60 248 55.3 244.2 51.3C240.6 47.1 235.8 43.5 229.8 40.5C223.8 37.3 216.9 34.7 209.1 32.7C201.5 30.5 193.6 28.8 185.4 27.6C177.4 26.2 169.4 25.3 161.4 24.9C153.6 24.3 146.6 24 140.4 24C127.2 24 114.1 25.1 101.1 27.3C88.3004 29.3 75.6004 32 63.0004 35.4ZM266.958 140.1C266.558 141.7 265.658 142.9 264.258 143.7C263.058 144.3 261.758 144.5 260.358 144.3C258.958 143.9 257.858 143.2 257.058 142.2C256.258 141 256.258 139.5 257.058 137.7L258.858 132.6C257.058 130.8 256.058 128.7 255.858 126.3C255.658 123.9 256.058 121.7 257.058 119.7C258.058 117.5 259.458 115.7 261.258 114.3C263.258 112.7 265.458 111.9 267.858 111.9C272.058 111.9 274.358 113.5 274.758 116.7C275.158 119.7 274.558 123.1 272.958 126.9C274.158 127.5 276.058 127.6 278.658 127.2C281.458 126.8 284.058 126.6 286.458 126.6C288.858 126.4 290.858 126.8 292.458 127.8C294.058 128.8 294.458 131.1 293.658 134.7C292.858 138.3 291.958 142.6 290.958 147.6C290.158 152.6 289.558 157.4 289.158 162C288.758 166.4 288.758 170.2 289.158 173.4C289.558 176.6 290.658 178.2 292.458 178.2C293.658 178.2 295.158 176.5 296.958 173.1C298.958 169.5 300.958 165.4 302.958 160.8C304.958 156.2 306.758 151.6 308.358 147C309.958 142.2 310.958 138.6 311.358 136.2C311.758 134.2 312.558 132.8 313.758 132C315.158 131.2 316.558 130.9 317.958 131.1C319.358 131.1 320.458 131.7 321.258 132.9C322.258 133.9 322.658 135.4 322.458 137.4C322.258 138.4 321.758 140.6 320.958 144C320.158 147.2 319.058 150.9 317.658 155.1C316.258 159.1 314.558 163.4 312.558 168C310.558 172.4 308.158 176.5 305.358 180.3C302.558 184.1 299.458 187.1 296.058 189.3C292.658 191.7 288.858 192.8 284.658 192.6C279.858 192.4 276.358 190.3 274.158 186.3C271.958 182.1 270.558 177.2 269.958 171.6C269.358 165.8 269.458 159.7 270.258 153.3C271.258 146.9 272.558 141.3 274.158 136.5C273.158 136.7 272.158 136.8 271.158 136.8C270.158 136.8 269.158 136.8 268.158 136.8C267.558 137.8 267.158 138.9 266.958 140.1ZM346.671 107.1C349.471 107.7 351.871 109 353.871 111C356.071 113 357.871 115.2 359.271 117.6C360.871 115.8 362.871 114.8 365.271 114.6C367.671 114.4 369.971 114.8 372.171 115.8C374.371 116.6 376.171 118 377.571 120C378.971 121.8 379.471 124 379.071 126.6C378.271 130.2 377.471 134.7 376.671 140.1C376.071 145.5 375.671 150.7 375.471 155.7C375.271 160.7 375.371 165 375.771 168.6C376.371 172.2 377.471 174 379.071 174C380.271 174 381.671 172.5 383.271 169.5C385.071 166.3 386.771 162.6 388.371 158.4C390.171 154.2 391.771 150 393.171 145.8C394.571 141.6 395.471 138.4 395.871 136.2C396.471 134.2 397.471 132.9 398.871 132.3C400.271 131.5 401.571 131.3 402.771 131.7C404.171 131.9 405.271 132.6 406.071 133.8C407.071 135 407.271 136.5 406.671 138.3C406.271 139.5 405.571 141.8 404.571 145.2C403.771 148.4 402.671 152 401.271 156C399.871 160 398.171 164.2 396.171 168.6C394.371 172.8 392.171 176.6 389.571 180C387.171 183.2 384.371 185.7 381.171 187.5C378.171 189.3 374.871 189.7 371.271 188.7C365.471 187.1 361.271 183.6 358.671 178.2C357.071 183 354.871 187.3 352.071 191.1C349.271 195.1 345.671 198 341.271 199.8C337.071 201.2 333.371 201.5 330.171 200.7C324.371 199.1 319.771 195.5 316.371 189.9C312.971 184.3 310.671 177.8 309.471 170.4C308.271 163 308.171 155.3 309.171 147.3C310.171 139.3 312.171 132.1 315.171 125.7C318.371 119.3 322.571 114.3 327.771 110.7C332.971 106.9 339.271 105.7 346.671 107.1ZM354.471 137.4C354.071 134 353.271 130.7 352.071 127.5C351.071 124.3 349.471 122.5 347.271 122.1C344.071 121.5 341.171 122.7 338.571 125.7C336.171 128.5 334.171 132.3 332.571 137.1C330.971 141.9 329.771 147.2 328.971 153C328.371 158.6 328.171 164 328.371 169.2C328.771 174.2 329.571 178.5 330.771 182.1C332.171 185.7 334.171 187.7 336.771 188.1C339.371 188.5 341.771 187.1 343.971 183.9C346.371 180.7 348.371 176.6 349.971 171.6C351.771 166.6 353.071 161.1 353.871 155.1C354.871 148.9 355.071 143 354.471 137.4ZM446.939 59.7C446.939 54.9 448.239 51.6 450.839 49.8C453.439 47.8 456.239 46.9 459.239 47.1C462.239 47.3 464.839 48.4 467.039 50.4C469.439 52.4 470.339 55 469.739 58.2C469.339 60.6 468.739 65.2 467.939 72C467.139 78.6 466.239 86.3 465.239 95.1C464.439 103.9 463.739 113 463.139 122.4C462.539 131.8 462.239 140.5 462.239 148.5C462.239 156.5 462.539 163.1 463.139 168.3C463.939 173.3 465.339 175.8 467.339 175.8C469.139 175.8 470.939 174.1 472.739 170.7C474.739 167.3 476.639 163.4 478.439 159C480.239 154.4 481.739 150 482.939 145.8C484.339 141.4 485.239 138.2 485.639 136.2C486.239 134.2 487.139 132.9 488.339 132.3C489.739 131.5 491.039 131.3 492.239 131.7C493.639 131.9 494.739 132.6 495.539 133.8C496.539 135 496.839 136.6 496.439 138.6C496.039 140.6 495.139 144.5 493.739 150.3C492.339 156.1 490.239 162.1 487.439 168.3C484.639 174.3 480.939 179.7 476.339 184.5C471.939 189.3 466.639 191.7 460.439 191.7C455.839 191.7 452.239 189.9 449.639 186.3C447.239 182.5 445.339 177.6 443.939 171.6C442.339 175.4 440.139 178.8 437.339 181.8C434.739 184.8 431.439 187 427.439 188.4C423.039 190 419.239 190.2 416.039 189C410.239 187.6 405.639 184.5 402.239 179.7C398.839 174.7 396.539 169 395.339 162.6C393.939 156 393.739 149.2 394.739 142.2C395.739 135.2 397.739 128.9 400.739 123.3C403.939 117.7 408.139 113.4 413.339 110.4C418.539 107.2 424.839 106.2 432.239 107.4C436.239 108 439.739 110.1 442.739 113.7C443.539 102.3 444.439 91.7 445.439 81.9C446.439 72.1 446.939 64.7 446.939 59.7ZM440.039 133.8C439.639 131 438.839 128.2 437.639 125.4C436.639 122.6 435.039 121 432.839 120.6C429.639 120 426.739 121 424.139 123.6C421.739 126.2 419.739 129.6 418.139 133.8C416.539 137.8 415.339 142.3 414.539 147.3C413.939 152.3 413.739 157.1 413.939 161.7C414.339 166.1 415.239 169.9 416.639 173.1C418.039 176.1 420.039 177.8 422.639 178.2C425.239 178.6 427.639 177.4 429.839 174.6C432.239 171.8 434.239 168.2 435.839 163.8C437.639 159.4 438.939 154.5 439.739 149.1C440.539 143.7 440.639 138.6 440.039 133.8ZM485.888 126.6C485.888 121.8 487.088 118.5 489.488 116.7C492.088 114.9 494.888 114.2 497.888 114.6C500.888 115 503.488 116.3 505.688 118.5C507.888 120.7 508.688 123.4 508.088 126.6C507.288 130.2 506.488 134.7 505.688 140.1C505.088 145.5 504.688 150.7 504.488 155.7C504.288 160.7 504.388 165 504.788 168.6C505.388 172.2 506.588 174 508.388 174C509.588 174 510.988 172.5 512.588 169.5C514.388 166.3 516.088 162.6 517.688 158.4C519.288 154.2 520.788 150 522.188 145.8C523.588 141.6 524.488 138.4 524.888 136.2C525.488 134.2 526.488 132.9 527.888 132.3C529.288 131.5 530.588 131.3 531.788 131.7C533.188 131.9 534.288 132.6 535.088 133.8C536.088 135 536.288 136.5 535.688 138.3C535.288 139.5 534.588 141.8 533.588 145.2C532.788 148.4 531.688 152 530.288 156C528.888 160 527.188 164.2 525.188 168.6C523.388 172.8 521.188 176.6 518.588 180C516.188 183.2 513.488 185.7 510.488 187.5C507.488 189.3 504.188 189.7 500.588 188.7C495.188 187.1 491.288 184.2 488.888 180C486.688 175.6 485.388 170.6 484.988 165C484.588 159.2 484.688 153 485.288 146.4C485.688 139.6 485.888 133 485.888 126.6ZM520.088 85.5C520.488 87.7 520.188 89.8 519.188 91.8C518.388 93.6 517.088 95.3 515.288 96.9C513.488 98.3 511.388 99.5 508.988 100.5C506.588 101.5 504.088 102.2 501.488 102.6C496.488 103.2 491.588 102.7 486.788 101.1C481.988 99.5 479.288 96.6 478.688 92.4C477.888 88 479.288 84.3 482.888 81.3C486.288 78.1 490.888 76 496.688 75C502.488 74 507.688 74.5 512.288 76.5C516.888 78.3 519.488 81.3 520.088 85.5ZM525.446 102C525.446 98.2 526.746 95.1 529.346 92.7C531.946 90.3 534.746 88.7 537.746 87.9C540.746 86.9 543.346 86.8 545.546 87.6C547.946 88.2 548.946 89.8 548.546 92.4C548.146 94.6 547.746 97.5 547.346 101.1C547.146 104.7 546.846 108.8 546.446 113.4C548.446 111.4 550.946 109.6 553.946 108C557.146 106.4 560.546 105.7 564.146 105.9C570.346 106.3 575.146 108.6 578.546 112.8C582.146 117 584.646 122 586.046 127.8C587.446 133.6 587.746 139.8 586.946 146.4C586.146 153 584.446 159.1 581.846 164.7C579.246 170.3 575.846 174.9 571.646 178.5C567.646 181.9 562.946 183.4 557.546 183C553.946 183 550.346 181.8 546.746 179.4C546.146 179 545.546 178.6 544.946 178.2C544.346 177.8 543.746 177.3 543.146 176.7C542.746 184.5 542.446 191.7 542.246 198.3C542.246 205.1 542.246 210.5 542.246 214.5C542.246 216.7 541.046 218.4 538.646 219.6C536.446 220.8 534.046 221.4 531.446 221.4C528.846 221.6 526.446 221.1 524.246 219.9C522.046 218.9 521.146 217.2 521.546 214.8C521.946 210.8 522.346 205.5 522.746 198.9C523.146 192.3 523.546 185.1 523.946 177.3C524.146 169.5 524.346 161.5 524.546 153.3C524.746 145.1 524.846 137.5 524.846 130.5C525.046 123.5 525.146 117.5 525.146 112.5C525.346 107.3 525.446 103.8 525.446 102ZM549.446 127.2C547.646 131.4 546.346 135.9 545.546 140.7C544.946 145.5 544.846 150 545.246 154.2C545.646 158.4 546.646 162 548.246 165C549.846 168 551.846 169.7 554.246 170.1C556.246 170.5 558.046 169.5 559.646 167.1C561.446 164.7 562.846 161.7 563.846 158.1C565.046 154.3 565.946 150.2 566.546 145.8C567.146 141.2 567.246 136.9 566.846 132.9C566.646 128.9 565.946 125.6 564.746 123C563.746 120.2 562.146 118.7 559.946 118.5C557.746 118.3 555.746 119.1 553.946 120.9C552.146 122.7 550.646 124.8 549.446 127.2ZM640.172 170.4C639.772 175.4 637.572 179 633.572 181.2C629.772 183.2 625.772 183.7 621.572 182.7C617.572 181.7 613.872 179.7 610.472 176.7C607.272 173.5 605.872 169.6 606.272 165C606.672 159.8 608.572 156.2 611.972 154.2C615.572 152 619.672 151.2 624.272 151.8C628.872 152.8 632.772 155 635.972 158.4C639.172 161.8 640.572 165.8 640.172 170.4Z" fill="white"/>
</svg>
