<svg width="392" height="148" viewBox="0 0 392 148" fill="none" xmlns="http://www.w3.org/2000/svg">
<path d="M41.4 23.6C34.6 26 29.0667 27.9333 24.8 29.4C20.5333 30.8667 17.0667 32.0667 14.4 33C11.8667 33.8 9.86667 34.4 8.4 34.8C7.06667 35.0667 5.86667 35.2 4.8 35.2C1.6 35.2 7.45058e-08 34.4 7.45058e-08 32.8C7.45058e-08 31.8667 0.466667 30.8 1.4 29.6C2.33333 28.4 3.33333 27.2667 4.4 26.2C5.6 25.1333 6.73333 24.2 7.8 23.4C8.86667 22.6 9.6 22.1333 10 22C15.4667 18.2667 21.4667 15.0667 28 12.4C34.5333 9.59999 41.2667 7.33332 48.2 5.59999C55.2667 3.73332 62.4 2.33332 69.6 1.39999C76.9333 0.466658 84.1333 -1.09673e-05 91.2 -1.09673e-05C95.4667 -1.09673e-05 99.9333 0.19999 104.6 0.599993C109.267 0.999996 113.733 1.46666 118 2C121.6 2.53333 125.6 3.26666 130 4.19999C134.533 5.13332 139.133 6.33332 143.8 7.8C148.467 9.26666 153 11.0667 157.4 13.2C161.8 15.2 165.733 17.6 169.2 20.4C172.667 23.2 175.4 26.4667 177.4 30.2C179.533 33.8 180.6 37.8667 180.6 42.4C180.6 48.9333 178.8 54.7333 175.2 59.8C171.733 64.7333 167.2 69 161.6 72.6C156 76.2 149.667 79.2667 142.6 81.8C135.667 84.3333 128.667 86.4667 121.6 88.2C114.667 89.8 108 91.1333 101.6 92.2C95.3333 93.1333 90.1333 93.8667 86 94.4C85.8667 98.5333 85.5333 103.4 85 109C84.6 114.6 84 119.933 83.2 125C82.4 130.067 81.4 134.333 80.2 137.8C79 141.4 77.5333 143.2 75.8 143.2C74.7333 143.2 73.8667 142.133 73.2 140C71.3333 135.2 70.2 129.333 69.8 122.4C69.5333 115.467 69.4 106.867 69.4 96.6C63.5333 97.2667 57.7333 97.8667 52 98.4C46.4 98.9333 40.8 99.4667 35.2 100C35.0667 99.8667 34.1333 99.8667 32.4 100C30.8 100.133 28.7333 100.333 26.2 100.6C23.6667 100.733 20.9333 100.867 18 101C15.2 101.133 12.5333 101.133 10 101C7.6 100.867 5.53333 100.533 3.8 100C2.2 99.4667 1.4 98.6667 1.4 97.6C1.4 96.5333 2.93333 95.5333 6 94.6C9.2 93.6667 12.8667 92.8667 17 92.2C21.2667 91.5333 25.4 91 29.4 90.6C33.4 90.2 36.3333 89.8667 38.2 89.6C43.2667 89.3333 48.4 88.8667 53.6 88.2C58.8 87.4 64.1333 86.6 69.6 85.8C70 84.7333 70.2667 82.8667 70.4 80.2C70.6667 77.5333 70.9333 74.5333 71.2 71.2C71.4667 67.8667 71.7333 64.4667 72 61C72.4 57.4 72.8667 54.1333 73.4 51.2C73.9333 48.2667 74.6 45.8667 75.4 44C76.3333 42 77.5333 41 79 41C81.9333 41 84.2 41.8 85.8 43.4C87.4 45 88.4667 47.0667 89 49.6C89.6667 52.1333 89.9333 54.9333 89.8 58C89.8 61.0667 89.6 64.2 89.2 67.4C88.8 70.4667 88.3333 73.4 87.8 76.2C87.2667 78.8667 86.9333 81.0667 86.8 82.8C89.7333 82.4 93.7333 81.8 98.8 81C104 80.0667 109.533 78.9333 115.4 77.6C121.267 76.1333 127.2 74.4 133.2 72.4C139.2 70.4 144.6 68 149.4 65.2C154.333 62.4 158.333 59.2667 161.4 55.8C164.467 52.2 166 48.1333 166 43.6C166 40 164.733 36.8667 162.2 34.2C159.8 31.4 156.6 29 152.6 27C148.6 24.8667 144 23.1333 138.8 21.8C133.733 20.3333 128.467 19.2 123 18.4C117.667 17.4667 112.333 16.8667 107 16.6C101.8 16.2 97.1333 16 93 16C84.2 16 75.4667 16.7333 66.8 18.2C58.2667 19.5333 49.8 21.3333 41.4 23.6ZM177.372 93.4C177.105 94.4667 176.505 95.2667 175.572 95.8C174.772 96.2 173.905 96.3333 172.972 96.2C172.039 95.9333 171.305 95.4667 170.772 94.8C170.239 94 170.239 93 170.772 91.8L171.972 88.4C170.772 87.2 170.105 85.8 169.972 84.2C169.839 82.6 170.105 81.1333 170.772 79.8C171.439 78.3333 172.372 77.1333 173.572 76.2C174.905 75.1333 176.372 74.6 177.972 74.6C180.772 74.6 182.305 75.6667 182.572 77.8C182.839 79.8 182.439 82.0667 181.372 84.6C182.172 85 183.439 85.0667 185.172 84.8C187.039 84.5333 188.772 84.4 190.372 84.4C191.972 84.2667 193.305 84.5333 194.372 85.2C195.439 85.8667 195.705 87.4 195.172 89.8C194.639 92.2 194.039 95.0667 193.372 98.4C192.839 101.733 192.439 104.933 192.172 108C191.905 110.933 191.905 113.467 192.172 115.6C192.439 117.733 193.172 118.8 194.372 118.8C195.172 118.8 196.172 117.667 197.372 115.4C198.705 113 200.039 110.267 201.372 107.2C202.705 104.133 203.905 101.067 204.972 98C206.039 94.8 206.705 92.4 206.972 90.8C207.239 89.4667 207.772 88.5333 208.572 88C209.505 87.4667 210.439 87.2667 211.372 87.4C212.305 87.4 213.039 87.8 213.572 88.6C214.239 89.2667 214.505 90.2667 214.372 91.6C214.239 92.2667 213.905 93.7333 213.372 96C212.839 98.1333 212.105 100.6 211.172 103.4C210.239 106.067 209.105 108.933 207.772 112C206.439 114.933 204.839 117.667 202.972 120.2C201.105 122.733 199.039 124.733 196.772 126.2C194.505 127.8 191.972 128.533 189.172 128.4C185.972 128.267 183.639 126.867 182.172 124.2C180.705 121.4 179.772 118.133 179.372 114.4C178.972 110.533 179.039 106.467 179.572 102.2C180.239 97.9333 181.105 94.2 182.172 91C181.505 91.1333 180.839 91.2 180.172 91.2C179.505 91.2 178.839 91.2 178.172 91.2C177.772 91.8667 177.505 92.6 177.372 93.4ZM230.514 71.4C232.381 71.8 233.981 72.6667 235.314 74C236.781 75.3333 237.981 76.8 238.914 78.4C239.981 77.2 241.314 76.5333 242.914 76.4C244.514 76.2667 246.047 76.5333 247.514 77.2C248.981 77.7333 250.181 78.6667 251.114 80C252.047 81.2 252.381 82.6667 252.114 84.4C251.581 86.8 251.047 89.8 250.514 93.4C250.114 97 249.847 100.467 249.714 103.8C249.581 107.133 249.647 110 249.914 112.4C250.314 114.8 251.047 116 252.114 116C252.914 116 253.847 115 254.914 113C256.114 110.867 257.247 108.4 258.314 105.6C259.514 102.8 260.581 100 261.514 97.2C262.447 94.4 263.047 92.2667 263.314 90.8C263.714 89.4667 264.381 88.6 265.314 88.2C266.247 87.6667 267.114 87.5333 267.914 87.8C268.847 87.9333 269.581 88.4 270.114 89.2C270.781 90 270.914 91 270.514 92.2C270.247 93 269.781 94.5333 269.114 96.8C268.581 98.9333 267.847 101.333 266.914 104C265.981 106.667 264.847 109.467 263.514 112.4C262.314 115.2 260.847 117.733 259.114 120C257.514 122.133 255.647 123.8 253.514 125C251.514 126.2 249.314 126.467 246.914 125.8C243.047 124.733 240.247 122.4 238.514 118.8C237.447 122 235.981 124.867 234.114 127.4C232.247 130.067 229.847 132 226.914 133.2C224.114 134.133 221.647 134.333 219.514 133.8C215.647 132.733 212.581 130.333 210.314 126.6C208.047 122.867 206.514 118.533 205.714 113.6C204.914 108.667 204.847 103.533 205.514 98.2C206.181 92.8667 207.514 88.0667 209.514 83.8C211.647 79.5333 214.447 76.2 217.914 73.8C221.381 71.2667 225.581 70.4667 230.514 71.4ZM235.714 91.6C235.447 89.3333 234.914 87.1333 234.114 85C233.447 82.8667 232.381 81.6667 230.914 81.4C228.781 81 226.847 81.8 225.114 83.8C223.514 85.6667 222.181 88.2 221.114 91.4C220.047 94.6 219.247 98.1333 218.714 102C218.314 105.733 218.181 109.333 218.314 112.8C218.581 116.133 219.114 119 219.914 121.4C220.847 123.8 222.181 125.133 223.914 125.4C225.647 125.667 227.247 124.733 228.714 122.6C230.314 120.467 231.647 117.733 232.714 114.4C233.914 111.067 234.781 107.4 235.314 103.4C235.981 99.2667 236.114 95.3333 235.714 91.6ZM297.359 39.8C297.359 36.6 298.226 34.4 299.959 33.2C301.693 31.8667 303.559 31.2667 305.559 31.4C307.559 31.5333 309.293 32.2667 310.759 33.6C312.359 34.9333 312.959 36.6667 312.559 38.8C312.293 40.4 311.893 43.4667 311.359 48C310.826 52.4 310.226 57.5333 309.559 63.4C309.026 69.2667 308.559 75.3333 308.159 81.6C307.759 87.8667 307.559 93.6667 307.559 99C307.559 104.333 307.759 108.733 308.159 112.2C308.693 115.533 309.626 117.2 310.959 117.2C312.159 117.2 313.359 116.067 314.559 113.8C315.893 111.533 317.159 108.933 318.359 106C319.559 102.933 320.559 100 321.359 97.2C322.293 94.2667 322.893 92.1333 323.159 90.8C323.559 89.4667 324.159 88.6 324.959 88.2C325.893 87.6667 326.759 87.5333 327.559 87.8C328.493 87.9333 329.226 88.4 329.759 89.2C330.426 90 330.626 91.0667 330.359 92.4C330.093 93.7333 329.493 96.3333 328.559 100.2C327.626 104.067 326.226 108.067 324.359 112.2C322.493 116.2 320.026 119.8 316.959 123C314.026 126.2 310.493 127.8 306.359 127.8C303.293 127.8 300.893 126.6 299.159 124.2C297.559 121.667 296.293 118.4 295.359 114.4C294.293 116.933 292.826 119.2 290.959 121.2C289.226 123.2 287.026 124.667 284.359 125.6C281.426 126.667 278.893 126.8 276.759 126C272.893 125.067 269.826 123 267.559 119.8C265.293 116.467 263.759 112.667 262.959 108.4C262.026 104 261.893 99.4667 262.559 94.8C263.226 90.1333 264.559 85.9333 266.559 82.2C268.693 78.4667 271.493 75.6 274.959 73.6C278.426 71.4667 282.626 70.8 287.559 71.6C290.226 72 292.559 73.4 294.559 75.8C295.093 68.2 295.693 61.1333 296.359 54.6C297.026 48.0667 297.359 43.1333 297.359 39.8ZM292.759 89.2C292.493 87.3333 291.959 85.4667 291.159 83.6C290.493 81.7333 289.426 80.6667 287.959 80.4C285.826 80 283.893 80.6667 282.159 82.4C280.559 84.1333 279.226 86.4 278.159 89.2C277.093 91.8667 276.293 94.8667 275.759 98.2C275.359 101.533 275.226 104.733 275.359 107.8C275.626 110.733 276.226 113.267 277.159 115.4C278.093 117.4 279.426 118.533 281.159 118.8C282.893 119.067 284.493 118.267 285.959 116.4C287.559 114.533 288.893 112.133 289.959 109.2C291.159 106.267 292.026 103 292.559 99.4C293.093 95.8 293.159 92.4 292.759 89.2ZM323.325 84.4C323.325 81.2 324.125 79 325.725 77.8C327.458 76.6 329.325 76.1333 331.325 76.4C333.325 76.6667 335.058 77.5333 336.525 79C337.992 80.4667 338.525 82.2667 338.125 84.4C337.592 86.8 337.058 89.8 336.525 93.4C336.125 97 335.858 100.467 335.725 103.8C335.592 107.133 335.658 110 335.925 112.4C336.325 114.8 337.125 116 338.325 116C339.125 116 340.058 115 341.125 113C342.325 110.867 343.458 108.4 344.525 105.6C345.592 102.8 346.592 100 347.525 97.2C348.458 94.4 349.058 92.2667 349.325 90.8C349.725 89.4667 350.392 88.6 351.325 88.2C352.258 87.6667 353.125 87.5333 353.925 87.8C354.858 87.9333 355.592 88.4 356.125 89.2C356.792 90 356.925 91 356.525 92.2C356.258 93 355.792 94.5333 355.125 96.8C354.592 98.9333 353.858 101.333 352.925 104C351.992 106.667 350.858 109.467 349.525 112.4C348.325 115.2 346.858 117.733 345.125 120C343.525 122.133 341.725 123.8 339.725 125C337.725 126.2 335.525 126.467 333.125 125.8C329.525 124.733 326.925 122.8 325.325 120C323.858 117.067 322.992 113.733 322.725 110C322.458 106.133 322.525 102 322.925 97.6C323.192 93.0667 323.325 88.6667 323.325 84.4ZM346.125 57C346.392 58.4667 346.192 59.8667 345.525 61.2C344.992 62.4 344.125 63.5333 342.925 64.6C341.725 65.5333 340.325 66.3333 338.725 67C337.125 67.6667 335.458 68.1333 333.725 68.4C330.392 68.8 327.125 68.4667 323.925 67.4C320.725 66.3333 318.925 64.4 318.525 61.6C317.992 58.6667 318.925 56.2 321.325 54.2C323.592 52.0667 326.658 50.6667 330.525 50C334.392 49.3333 337.858 49.6667 340.925 51C343.992 52.2 345.725 54.2 346.125 57ZM349.697 68C349.697 65.4667 350.564 63.4 352.297 61.8C354.03 60.2 355.897 59.1333 357.897 58.6C359.897 57.9333 361.63 57.8667 363.097 58.4C364.697 58.8 365.364 59.8667 365.097 61.6C364.83 63.0667 364.564 65 364.297 67.4C364.164 69.8 363.964 72.5333 363.697 75.6C365.03 74.2667 366.697 73.0667 368.697 72C370.83 70.9333 373.097 70.4667 375.497 70.6C379.63 70.8667 382.83 72.4 385.097 75.2C387.497 78 389.164 81.3333 390.097 85.2C391.03 89.0667 391.23 93.2 390.697 97.6C390.164 102 389.03 106.067 387.297 109.8C385.564 113.533 383.297 116.6 380.497 119C377.83 121.267 374.697 122.267 371.097 122C368.697 122 366.297 121.2 363.897 119.6C363.497 119.333 363.097 119.067 362.697 118.8C362.297 118.533 361.897 118.2 361.497 117.8C361.23 123 361.03 127.8 360.897 132.2C360.897 136.733 360.897 140.333 360.897 143C360.897 144.467 360.097 145.6 358.497 146.4C357.03 147.2 355.43 147.6 353.697 147.6C351.964 147.733 350.364 147.4 348.897 146.6C347.43 145.933 346.83 144.8 347.097 143.2C347.364 140.533 347.63 137 347.897 132.6C348.164 128.2 348.43 123.4 348.697 118.2C348.83 113 348.964 107.667 349.097 102.2C349.23 96.7333 349.297 91.6667 349.297 87C349.43 82.3333 349.497 78.3333 349.497 75C349.63 71.5333 349.697 69.2 349.697 68ZM365.697 84.8C364.497 87.6 363.63 90.6 363.097 93.8C362.697 97 362.63 100 362.897 102.8C363.164 105.6 363.83 108 364.897 110C365.964 112 367.297 113.133 368.897 113.4C370.23 113.667 371.43 113 372.497 111.4C373.697 109.8 374.63 107.8 375.297 105.4C376.097 102.867 376.697 100.133 377.097 97.2C377.497 94.1333 377.564 91.2667 377.297 88.6C377.164 85.9333 376.697 83.7333 375.897 82C375.23 80.1333 374.164 79.1333 372.697 79C371.23 78.8667 369.897 79.4 368.697 80.6C367.497 81.8 366.497 83.2 365.697 84.8Z" fill="white"/>
</svg>
