<svg width="120" height="30" viewBox="0 0 120 30" fill="none" xmlns="http://www.w3.org/2000/svg">
<path d="M0.50521 24V2.87172H9.65074C11.5422 2.87172 13.1721 3.18361 14.5404 3.8074C15.9087 4.41107 16.9651 5.28638 17.7097 6.43335C18.4542 7.58031 18.8264 8.94862 18.8264 10.5383C18.8264 12.1078 18.4542 13.466 17.7097 14.613C16.9651 15.76 15.9087 16.6453 14.5404 17.2691C13.1721 17.8728 11.5422 18.1746 9.65074 18.1746H3.2217L5.3949 15.9713V24H0.50521ZM5.3949 16.5146L3.2217 14.1904H9.37909C10.8883 14.1904 12.0151 13.8685 12.7596 13.2246C13.5041 12.5807 13.8764 11.6852 13.8764 10.5383C13.8764 9.37118 13.5041 8.46568 12.7596 7.82178C12.0151 7.17787 10.8883 6.85591 9.37909 6.85591H3.2217L5.3949 4.5318V16.5146ZM21.9558 24V7.76141H26.4531V12.3493L25.8193 11.0212C26.3022 9.87424 27.0769 9.00898 28.1434 8.42544C29.2099 7.82178 30.5078 7.51994 32.037 7.51994V11.8663C31.8358 11.8462 31.6547 11.8361 31.4937 11.8361C31.3328 11.816 31.1617 11.806 30.9806 11.806C29.6928 11.806 28.6465 12.1782 27.8416 12.9227C27.0568 13.6471 26.6644 14.784 26.6644 16.3335V24H21.9558ZM43.7361 24V20.8308L43.4343 20.1365V14.4621C43.4343 13.456 43.1224 12.6712 42.4986 12.1078C41.8949 11.5444 40.9593 11.2627 39.6916 11.2627C38.8263 11.2627 37.9711 11.4035 37.126 11.6852C36.301 11.9468 35.5967 12.309 35.0132 12.7718L33.3229 9.48185C34.2083 8.85807 35.2747 8.37513 36.5223 8.03306C37.7699 7.69098 39.0376 7.51994 40.3254 7.51994C42.8004 7.51994 44.7221 8.10349 46.0904 9.27057C47.4587 10.4377 48.1429 12.2587 48.1429 14.7337V24H43.7361ZM38.7861 24.2415C37.5184 24.2415 36.4318 24.0302 35.5263 23.6076C34.6208 23.1649 33.9266 22.5713 33.4436 21.8268C32.9607 21.0823 32.7192 20.2472 32.7192 19.3216C32.7192 18.3557 32.9506 17.5106 33.4134 16.7862C33.8964 16.0618 34.651 15.4984 35.6772 15.0959C36.7034 14.6734 38.0415 14.4621 39.6916 14.4621H44.0078V17.2088H40.2047C39.098 17.2088 38.3333 17.3899 37.9108 17.7521C37.5083 18.1143 37.3071 18.567 37.3071 19.1103C37.3071 19.714 37.5385 20.1969 38.0013 20.5591C38.4842 20.9012 39.1382 21.0722 39.9632 21.0722C40.748 21.0722 41.4523 20.8911 42.076 20.5289C42.6998 20.1466 43.1526 19.5932 43.4343 18.8688L44.1587 21.042C43.8166 22.0884 43.1928 22.8832 42.2873 23.4265C41.3818 23.9698 40.2147 24.2415 38.7861 24.2415ZM59.4946 24.2415C57.9653 24.2415 56.587 23.8994 55.3595 23.2152C54.1321 22.511 53.1561 21.535 52.4317 20.2875C51.7275 19.0399 51.3753 17.571 51.3753 15.8807C51.3753 14.1703 51.7275 12.6913 52.4317 11.4438C53.1561 10.1962 54.1321 9.23033 55.3595 8.54617C56.587 7.86202 57.9653 7.51994 59.4946 7.51994C60.8629 7.51994 62.0602 7.82178 63.0864 8.42544C64.1126 9.0291 64.9075 9.94466 65.4709 11.1721C66.0343 12.3996 66.316 13.9691 66.316 15.8807C66.316 17.7722 66.0444 19.3417 65.5011 20.5893C64.9578 21.8167 64.173 22.7323 63.1468 23.336C62.1407 23.9396 60.9233 24.2415 59.4946 24.2415ZM60.3096 20.378C61.0742 20.378 61.7684 20.1969 62.3922 19.8347C63.016 19.4725 63.509 18.9594 63.8712 18.2954C64.2535 17.6112 64.4447 16.8063 64.4447 15.8807C64.4447 14.935 64.2535 14.1301 63.8712 13.466C63.509 12.802 63.016 12.2889 62.3922 11.9267C61.7684 11.5645 61.0742 11.3834 60.3096 11.3834C59.5248 11.3834 58.8205 11.5645 58.1967 11.9267C57.5729 12.2889 57.0699 12.802 56.6876 13.466C56.3254 14.1301 56.1443 14.935 56.1443 15.8807C56.1443 16.8063 56.3254 17.6112 56.6876 18.2954C57.0699 18.9594 57.5729 19.4725 58.1967 19.8347C58.8205 20.1969 59.5248 20.378 60.3096 20.378ZM64.5654 24V20.6798L64.6559 15.8505L64.3541 11.0514V1.60402H69.0627V24H64.5654ZM73.4206 24V7.76141H78.1292V24H73.4206ZM75.7749 5.49766C74.9097 5.49766 74.2054 5.24614 73.6621 4.74308C73.1188 4.24003 72.8472 3.61624 72.8472 2.87172C72.8472 2.1272 73.1188 1.50341 73.6621 1.00036C74.2054 0.497305 74.9097 0.245777 75.7749 0.245777C76.6402 0.245777 77.3445 0.487244 77.8878 0.970177C78.4311 1.43299 78.7027 2.03665 78.7027 2.78117C78.7027 3.56594 78.4311 4.21991 77.8878 4.74308C77.3646 5.24614 76.6603 5.49766 75.7749 5.49766ZM92.0975 24.2415C90.7292 24.2415 89.5319 23.9396 88.5057 23.336C87.4794 22.7323 86.6745 21.8167 86.091 20.5893C85.5276 19.3417 85.2459 17.7722 85.2459 15.8807C85.2459 13.9691 85.5175 12.3996 86.0608 11.1721C86.6041 9.94466 87.3889 9.0291 88.4151 8.42544C89.4413 7.82178 90.6688 7.51994 92.0975 7.51994C93.6268 7.51994 94.9951 7.87208 96.2024 8.57636C97.4298 9.26051 98.3957 10.2264 99.1 11.4739C99.8244 12.7215 100.187 14.1904 100.187 15.8807C100.187 17.5911 99.8244 19.0701 99.1 20.3176C98.3957 21.5652 97.4298 22.5311 96.2024 23.2152C94.9951 23.8994 93.6268 24.2415 92.0975 24.2415ZM82.4992 29.8556V7.76141H86.9965V11.0816L86.906 15.9109L87.2078 20.71V29.8556H82.4992ZM91.2825 20.378C92.0673 20.378 92.7615 20.1969 93.3652 19.8347C93.989 19.4725 94.482 18.9594 94.8442 18.2954C95.2265 17.6112 95.4176 16.8063 95.4176 15.8807C95.4176 14.935 95.2265 14.1301 94.8442 13.466C94.482 12.802 93.989 12.2889 93.3652 11.9267C92.7615 11.5645 92.0673 11.3834 91.2825 11.3834C90.4978 11.3834 89.7935 11.5645 89.1697 11.9267C88.5459 12.2889 88.0529 12.802 87.6907 13.466C87.3285 14.1301 87.1474 14.935 87.1474 15.8807C87.1474 16.8063 87.3285 17.6112 87.6907 18.2954C88.0529 18.9594 88.5459 19.4725 89.1697 19.8347C89.7935 20.1969 90.4978 20.378 91.2825 20.378ZM103.671 24V2.87172H108.56V20.0158H119.155V24H103.671Z" fill="white"/>
</svg>
