<svg width="774" height="159" viewBox="0 0 774 159" fill="none" xmlns="http://www.w3.org/2000/svg">
<path d="M41.4 23.6C34.6 26 29.0667 27.9333 24.8 29.4C20.5333 30.8667 17.0667 32.0667 14.4 33C11.8667 33.8 9.86667 34.4 8.4 34.8C7.06667 35.0667 5.86667 35.2 4.8 35.2C1.6 35.2 7.45058e-08 34.4 7.45058e-08 32.8C7.45058e-08 31.8667 0.466667 30.8 1.4 29.6C2.33333 28.4 3.33333 27.2667 4.4 26.2C5.6 25.1333 6.73333 24.2 7.8 23.4C8.86667 22.6 9.6 22.1333 10 22C15.4667 18.2667 21.4667 15.0667 28 12.4C34.5333 9.59999 41.2667 7.33332 48.2 5.59999C55.2667 3.73332 62.4 2.33332 69.6 1.39999C76.9333 0.466658 84.1333 -1.09673e-05 91.2 -1.09673e-05C95.4667 -1.09673e-05 99.9333 0.19999 104.6 0.599993C109.267 0.999996 113.733 1.46666 118 2C121.6 2.53333 125.6 3.26666 130 4.19999C134.533 5.13332 139.133 6.33332 143.8 7.8C148.467 9.26666 153 11.0667 157.4 13.2C161.8 15.2 165.733 17.6 169.2 20.4C172.667 23.2 175.4 26.4667 177.4 30.2C179.533 33.8 180.6 37.8667 180.6 42.4C180.6 48.9333 178.8 54.7333 175.2 59.8C171.733 64.7333 167.2 69 161.6 72.6C156 76.2 149.667 79.2667 142.6 81.8C135.667 84.3333 128.667 86.4667 121.6 88.2C114.667 89.8 108 91.1333 101.6 92.2C95.3333 93.1333 90.1333 93.8667 86 94.4C85.8667 98.5333 85.5333 103.4 85 109C84.6 114.6 84 119.933 83.2 125C82.4 130.067 81.4 134.333 80.2 137.8C79 141.4 77.5333 143.2 75.8 143.2C74.7333 143.2 73.8667 142.133 73.2 140C71.3333 135.2 70.2 129.333 69.8 122.4C69.5333 115.467 69.4 106.867 69.4 96.6C63.5333 97.2667 57.7333 97.8667 52 98.4C46.4 98.9333 40.8 99.4667 35.2 100C35.0667 99.8667 34.1333 99.8667 32.4 100C30.8 100.133 28.7333 100.333 26.2 100.6C23.6667 100.733 20.9333 100.867 18 101C15.2 101.133 12.5333 101.133 10 101C7.6 100.867 5.53333 100.533 3.8 100C2.2 99.4667 1.4 98.6667 1.4 97.6C1.4 96.5333 2.93333 95.5333 6 94.6C9.2 93.6667 12.8667 92.8667 17 92.2C21.2667 91.5333 25.4 91 29.4 90.6C33.4 90.2 36.3333 89.8667 38.2 89.6C43.2667 89.3333 48.4 88.8667 53.6 88.2C58.8 87.4 64.1333 86.6 69.6 85.8C70 84.7333 70.2667 82.8667 70.4 80.2C70.6667 77.5333 70.9333 74.5333 71.2 71.2C71.4667 67.8667 71.7333 64.4667 72 61C72.4 57.4 72.8667 54.1333 73.4 51.2C73.9333 48.2667 74.6 45.8667 75.4 44C76.3333 42 77.5333 41 79 41C81.9333 41 84.2 41.8 85.8 43.4C87.4 45 88.4667 47.0667 89 49.6C89.6667 52.1333 89.9333 54.9333 89.8 58C89.8 61.0667 89.6 64.2 89.2 67.4C88.8 70.4667 88.3333 73.4 87.8 76.2C87.2667 78.8667 86.9333 81.0667 86.8 82.8C89.7333 82.4 93.7333 81.8 98.8 81C104 80.0667 109.533 78.9333 115.4 77.6C121.267 76.1333 127.2 74.4 133.2 72.4C139.2 70.4 144.6 68 149.4 65.2C154.333 62.4 158.333 59.2667 161.4 55.8C164.467 52.2 166 48.1333 166 43.6C166 40 164.733 36.8667 162.2 34.2C159.8 31.4 156.6 29 152.6 27C148.6 24.8667 144 23.1333 138.8 21.8C133.733 20.3333 128.467 19.2 123 18.4C117.667 17.4667 112.333 16.8667 107 16.6C101.8 16.2 97.1333 16 93 16C84.2 16 75.4667 16.7333 66.8 18.2C58.2667 19.5333 49.8 21.3333 41.4 23.6ZM177.372 93.4C177.105 94.4667 176.505 95.2667 175.572 95.8C174.772 96.2 173.905 96.3333 172.972 96.2C172.039 95.9333 171.305 95.4667 170.772 94.8C170.239 94 170.239 93 170.772 91.8L171.972 88.4C170.772 87.2 170.105 85.8 169.972 84.2C169.839 82.6 170.105 81.1333 170.772 79.8C171.439 78.3333 172.372 77.1333 173.572 76.2C174.905 75.1333 176.372 74.6 177.972 74.6C180.772 74.6 182.305 75.6667 182.572 77.8C182.839 79.8 182.439 82.0667 181.372 84.6C182.172 85 183.439 85.0667 185.172 84.8C187.039 84.5333 188.772 84.4 190.372 84.4C191.972 84.2667 193.305 84.5333 194.372 85.2C195.439 85.8667 195.705 87.4 195.172 89.8C194.639 92.2 194.039 95.0667 193.372 98.4C192.839 101.733 192.439 104.933 192.172 108C191.905 110.933 191.905 113.467 192.172 115.6C192.439 117.733 193.172 118.8 194.372 118.8C195.172 118.8 196.172 117.667 197.372 115.4C198.705 113 200.039 110.267 201.372 107.2C202.705 104.133 203.905 101.067 204.972 98C206.039 94.8 206.705 92.4 206.972 90.8C207.239 89.4667 207.772 88.5333 208.572 88C209.505 87.4667 210.439 87.2667 211.372 87.4C212.305 87.4 213.039 87.8 213.572 88.6C214.239 89.2667 214.505 90.2667 214.372 91.6C214.239 92.2667 213.905 93.7333 213.372 96C212.839 98.1333 212.105 100.6 211.172 103.4C210.239 106.067 209.105 108.933 207.772 112C206.439 114.933 204.839 117.667 202.972 120.2C201.105 122.733 199.039 124.733 196.772 126.2C194.505 127.8 191.972 128.533 189.172 128.4C185.972 128.267 183.639 126.867 182.172 124.2C180.705 121.4 179.772 118.133 179.372 114.4C178.972 110.533 179.039 106.467 179.572 102.2C180.239 97.9333 181.105 94.2 182.172 91C181.505 91.1333 180.839 91.2 180.172 91.2C179.505 91.2 178.839 91.2 178.172 91.2C177.772 91.8667 177.505 92.6 177.372 93.4ZM230.514 71.4C232.381 71.8 233.981 72.6667 235.314 74C236.781 75.3333 237.981 76.8 238.914 78.4C239.981 77.2 241.314 76.5333 242.914 76.4C244.514 76.2667 246.047 76.5333 247.514 77.2C248.981 77.7333 250.181 78.6667 251.114 80C252.047 81.2 252.381 82.6667 252.114 84.4C251.581 86.8 251.047 89.8 250.514 93.4C250.114 97 249.847 100.467 249.714 103.8C249.581 107.133 249.647 110 249.914 112.4C250.314 114.8 251.047 116 252.114 116C252.914 116 253.847 115 254.914 113C256.114 110.867 257.247 108.4 258.314 105.6C259.514 102.8 260.581 100 261.514 97.2C262.447 94.4 263.047 92.2667 263.314 90.8C263.714 89.4667 264.381 88.6 265.314 88.2C266.247 87.6667 267.114 87.5333 267.914 87.8C268.847 87.9333 269.581 88.4 270.114 89.2C270.781 90 270.914 91 270.514 92.2C270.247 93 269.781 94.5333 269.114 96.8C268.581 98.9333 267.847 101.333 266.914 104C265.981 106.667 264.847 109.467 263.514 112.4C262.314 115.2 260.847 117.733 259.114 120C257.514 122.133 255.647 123.8 253.514 125C251.514 126.2 249.314 126.467 246.914 125.8C243.047 124.733 240.247 122.4 238.514 118.8C237.447 122 235.981 124.867 234.114 127.4C232.247 130.067 229.847 132 226.914 133.2C224.114 134.133 221.647 134.333 219.514 133.8C215.647 132.733 212.581 130.333 210.314 126.6C208.047 122.867 206.514 118.533 205.714 113.6C204.914 108.667 204.847 103.533 205.514 98.2C206.181 92.8667 207.514 88.0667 209.514 83.8C211.647 79.5333 214.447 76.2 217.914 73.8C221.381 71.2667 225.581 70.4667 230.514 71.4ZM235.714 91.6C235.447 89.3333 234.914 87.1333 234.114 85C233.447 82.8667 232.381 81.6667 230.914 81.4C228.781 81 226.847 81.8 225.114 83.8C223.514 85.6667 222.181 88.2 221.114 91.4C220.047 94.6 219.247 98.1333 218.714 102C218.314 105.733 218.181 109.333 218.314 112.8C218.581 116.133 219.114 119 219.914 121.4C220.847 123.8 222.181 125.133 223.914 125.4C225.647 125.667 227.247 124.733 228.714 122.6C230.314 120.467 231.647 117.733 232.714 114.4C233.914 111.067 234.781 107.4 235.314 103.4C235.981 99.2667 236.114 95.3333 235.714 91.6ZM297.359 39.8C297.359 36.6 298.226 34.4 299.959 33.2C301.693 31.8667 303.559 31.2667 305.559 31.4C307.559 31.5333 309.293 32.2667 310.759 33.6C312.359 34.9333 312.959 36.6667 312.559 38.8C312.293 40.4 311.893 43.4667 311.359 48C310.826 52.4 310.226 57.5333 309.559 63.4C309.026 69.2667 308.559 75.3333 308.159 81.6C307.759 87.8667 307.559 93.6667 307.559 99C307.559 104.333 307.759 108.733 308.159 112.2C308.693 115.533 309.626 117.2 310.959 117.2C312.159 117.2 313.359 116.067 314.559 113.8C315.893 111.533 317.159 108.933 318.359 106C319.559 102.933 320.559 100 321.359 97.2C322.293 94.2667 322.893 92.1333 323.159 90.8C323.559 89.4667 324.159 88.6 324.959 88.2C325.893 87.6667 326.759 87.5333 327.559 87.8C328.493 87.9333 329.226 88.4 329.759 89.2C330.426 90 330.626 91.0667 330.359 92.4C330.093 93.7333 329.493 96.3333 328.559 100.2C327.626 104.067 326.226 108.067 324.359 112.2C322.493 116.2 320.026 119.8 316.959 123C314.026 126.2 310.493 127.8 306.359 127.8C303.293 127.8 300.893 126.6 299.159 124.2C297.559 121.667 296.293 118.4 295.359 114.4C294.293 116.933 292.826 119.2 290.959 121.2C289.226 123.2 287.026 124.667 284.359 125.6C281.426 126.667 278.893 126.8 276.759 126C272.893 125.067 269.826 123 267.559 119.8C265.293 116.467 263.759 112.667 262.959 108.4C262.026 104 261.893 99.4667 262.559 94.8C263.226 90.1333 264.559 85.9333 266.559 82.2C268.693 78.4667 271.493 75.6 274.959 73.6C278.426 71.4667 282.626 70.8 287.559 71.6C290.226 72 292.559 73.4 294.559 75.8C295.093 68.2 295.693 61.1333 296.359 54.6C297.026 48.0667 297.359 43.1333 297.359 39.8ZM292.759 89.2C292.493 87.3333 291.959 85.4667 291.159 83.6C290.493 81.7333 289.426 80.6667 287.959 80.4C285.826 80 283.893 80.6667 282.159 82.4C280.559 84.1333 279.226 86.4 278.159 89.2C277.093 91.8667 276.293 94.8667 275.759 98.2C275.359 101.533 275.226 104.733 275.359 107.8C275.626 110.733 276.226 113.267 277.159 115.4C278.093 117.4 279.426 118.533 281.159 118.8C282.893 119.067 284.493 118.267 285.959 116.4C287.559 114.533 288.893 112.133 289.959 109.2C291.159 106.267 292.026 103 292.559 99.4C293.093 95.8 293.159 92.4 292.759 89.2ZM323.325 84.4C323.325 81.2 324.125 79 325.725 77.8C327.458 76.6 329.325 76.1333 331.325 76.4C333.325 76.6667 335.058 77.5333 336.525 79C337.992 80.4667 338.525 82.2667 338.125 84.4C337.592 86.8 337.058 89.8 336.525 93.4C336.125 97 335.858 100.467 335.725 103.8C335.592 107.133 335.658 110 335.925 112.4C336.325 114.8 337.125 116 338.325 116C339.125 116 340.058 115 341.125 113C342.325 110.867 343.458 108.4 344.525 105.6C345.592 102.8 346.592 100 347.525 97.2C348.458 94.4 349.058 92.2667 349.325 90.8C349.725 89.4667 350.392 88.6 351.325 88.2C352.258 87.6667 353.125 87.5333 353.925 87.8C354.858 87.9333 355.592 88.4 356.125 89.2C356.792 90 356.925 91 356.525 92.2C356.258 93 355.792 94.5333 355.125 96.8C354.592 98.9333 353.858 101.333 352.925 104C351.992 106.667 350.858 109.467 349.525 112.4C348.325 115.2 346.858 117.733 345.125 120C343.525 122.133 341.725 123.8 339.725 125C337.725 126.2 335.525 126.467 333.125 125.8C329.525 124.733 326.925 122.8 325.325 120C323.858 117.067 322.992 113.733 322.725 110C322.458 106.133 322.525 102 322.925 97.6C323.192 93.0667 323.325 88.6667 323.325 84.4ZM346.125 57C346.392 58.4667 346.192 59.8667 345.525 61.2C344.992 62.4 344.125 63.5333 342.925 64.6C341.725 65.5333 340.325 66.3333 338.725 67C337.125 67.6667 335.458 68.1333 333.725 68.4C330.392 68.8 327.125 68.4667 323.925 67.4C320.725 66.3333 318.925 64.4 318.525 61.6C317.992 58.6667 318.925 56.2 321.325 54.2C323.592 52.0667 326.658 50.6667 330.525 50C334.392 49.3333 337.858 49.6667 340.925 51C343.992 52.2 345.725 54.2 346.125 57ZM349.697 68C349.697 65.4667 350.564 63.4 352.297 61.8C354.03 60.2 355.897 59.1333 357.897 58.6C359.897 57.9333 361.63 57.8667 363.097 58.4C364.697 58.8 365.364 59.8667 365.097 61.6C364.83 63.0667 364.564 65 364.297 67.4C364.164 69.8 363.964 72.5333 363.697 75.6C365.03 74.2667 366.697 73.0667 368.697 72C370.83 70.9333 373.097 70.4667 375.497 70.6C379.63 70.8667 382.83 72.4 385.097 75.2C387.497 78 389.164 81.3333 390.097 85.2C391.03 89.0667 391.23 93.2 390.697 97.6C390.164 102 389.03 106.067 387.297 109.8C385.564 113.533 383.297 116.6 380.497 119C377.83 121.267 374.697 122.267 371.097 122C368.697 122 366.297 121.2 363.897 119.6C363.497 119.333 363.097 119.067 362.697 118.8C362.297 118.533 361.897 118.2 361.497 117.8C361.23 123 361.03 127.8 360.897 132.2C360.897 136.733 360.897 140.333 360.897 143C360.897 144.467 360.097 145.6 358.497 146.4C357.03 147.2 355.43 147.6 353.697 147.6C351.964 147.733 350.364 147.4 348.897 146.6C347.43 145.933 346.83 144.8 347.097 143.2C347.364 140.533 347.63 137 347.897 132.6C348.164 128.2 348.43 123.4 348.697 118.2C348.83 113 348.964 107.667 349.097 102.2C349.23 96.7333 349.297 91.6667 349.297 87C349.43 82.3333 349.497 78.3333 349.497 75C349.63 71.5333 349.697 69.2 349.697 68ZM365.697 84.8C364.497 87.6 363.63 90.6 363.097 93.8C362.697 97 362.63 100 362.897 102.8C363.164 105.6 363.83 108 364.897 110C365.964 112 367.297 113.133 368.897 113.4C370.23 113.667 371.43 113 372.497 111.4C373.697 109.8 374.63 107.8 375.297 105.4C376.097 102.867 376.697 100.133 377.097 97.2C377.497 94.1333 377.564 91.2667 377.297 88.6C377.164 85.9333 376.697 83.7333 375.897 82C375.23 80.1333 374.164 79.1333 372.697 79C371.23 78.8667 369.897 79.4 368.697 80.6C367.497 81.8 366.497 83.2 365.697 84.8ZM577.923 140C579.523 140.267 581.323 140.667 583.323 141.2C585.323 141.867 587.19 142.667 588.923 143.6C590.79 144.667 592.323 145.867 593.523 147.2C594.857 148.667 595.523 150.333 595.523 152.2C595.523 153.933 594.857 155.2 593.523 156C592.323 156.8 590.79 157.333 588.923 157.6C587.19 158 585.323 158.133 583.323 158C581.323 158 579.59 158 578.123 158C557.057 158 539.19 158 524.523 158C509.857 158 497.723 158 488.123 158C478.523 158.133 470.99 158.2 465.523 158.2C460.19 158.2 456.123 158.2 453.323 158.2C450.657 158.333 448.923 158.4 448.123 158.4C447.323 158.4 446.723 158.4 446.323 158.4C442.99 158.4 439.923 157.933 437.123 157C434.457 156.067 433.123 154.6 433.123 152.6C433.123 150.867 433.79 149.533 435.123 148.6C436.457 147.8 438.123 147.2 440.123 146.8C442.257 146.4 444.523 146.2 446.923 146.2C449.323 146.2 451.523 146.2 453.523 146.2C460.057 146.2 466.457 146 472.723 145.6C478.99 145.2 485.323 144.667 491.723 144C490.657 137.067 489.923 128.733 489.523 119C489.123 109.267 488.923 99.3333 488.923 89.2C488.923 78.9333 488.99 69.0667 489.123 59.6C489.39 50 489.657 41.9333 489.923 35.4C489.923 31.2667 489.99 27.4 490.123 23.8C490.39 20.0667 490.723 16.8 491.123 14C491.523 11.2 492.057 8.99999 492.723 7.39999C493.39 5.66666 494.257 4.8 495.323 4.8C497.457 4.8 499.257 5.46666 500.723 6.8C502.323 8.13333 503.657 9.79999 504.723 11.8C505.79 13.8 506.523 15.9333 506.923 18.2C507.457 20.4667 507.657 22.4667 507.523 24.2C507.123 37 506.723 48.2667 506.323 58C506.057 67.6 505.723 76 505.323 83.2C505.057 90.4 504.79 96.5333 504.523 101.6C504.39 106.533 504.323 110.6 504.323 113.8C504.19 115.8 503.99 118.067 503.723 120.6C503.457 123.133 503.123 125.733 502.723 128.4C502.323 131.067 501.857 133.667 501.323 136.2C500.79 138.867 500.123 141.2 499.323 143.2C505.457 142.667 511.657 142.067 517.923 141.4C524.323 140.733 530.79 140.133 537.323 139.6C543.857 139.2 550.457 139 557.123 139C563.923 139 570.857 139.333 577.923 140ZM569.577 71.4C571.443 71.8 573.043 72.6667 574.377 74C575.843 75.3333 577.043 76.8 577.977 78.4C579.043 77.2 580.377 76.5333 581.977 76.4C583.577 76.2667 585.11 76.5333 586.577 77.2C588.043 77.7333 589.243 78.6667 590.177 80C591.11 81.2 591.443 82.6667 591.177 84.4C590.643 86.8 590.11 89.8 589.577 93.4C589.177 97 588.91 100.467 588.777 103.8C588.643 107.133 588.71 110 588.977 112.4C589.377 114.8 590.11 116 591.177 116C591.977 116 592.91 115 593.977 113C595.177 110.867 596.31 108.4 597.377 105.6C598.577 102.8 599.643 100 600.577 97.2C601.51 94.4 602.11 92.2667 602.377 90.8C602.777 89.4667 603.443 88.6 604.377 88.2C605.31 87.6667 606.177 87.5333 606.977 87.8C607.91 87.9333 608.643 88.4 609.177 89.2C609.843 90 609.977 91 609.577 92.2C609.31 93 608.843 94.5333 608.177 96.8C607.643 98.9333 606.91 101.333 605.977 104C605.043 106.667 603.91 109.467 602.577 112.4C601.377 115.2 599.91 117.733 598.177 120C596.577 122.133 594.71 123.8 592.577 125C590.577 126.2 588.377 126.467 585.977 125.8C582.11 124.733 579.31 122.4 577.577 118.8C576.51 122 575.043 124.867 573.177 127.4C571.31 130.067 568.91 132 565.977 133.2C563.177 134.133 560.71 134.333 558.577 133.8C554.71 132.733 551.643 130.333 549.377 126.6C547.11 122.867 545.577 118.533 544.777 113.6C543.977 108.667 543.91 103.533 544.577 98.2C545.243 92.8667 546.577 88.0667 548.577 83.8C550.71 79.5333 553.51 76.2 556.977 73.8C560.443 71.2667 564.643 70.4667 569.577 71.4ZM574.777 91.6C574.51 89.3333 573.977 87.1333 573.177 85C572.51 82.8667 571.443 81.6667 569.977 81.4C567.843 81 565.91 81.8 564.177 83.8C562.577 85.6667 561.243 88.2 560.177 91.4C559.11 94.6 558.31 98.1333 557.777 102C557.377 105.733 557.243 109.333 557.377 112.8C557.643 116.133 558.177 119 558.977 121.4C559.91 123.8 561.243 125.133 562.977 125.4C564.71 125.667 566.31 124.733 567.777 122.6C569.377 120.467 570.71 117.733 571.777 114.4C572.977 111.067 573.843 107.4 574.377 103.4C575.043 99.2667 575.177 95.3333 574.777 91.6ZM636.422 39.8C636.422 36.6 637.289 34.4 639.022 33.2C640.755 31.8667 642.622 31.2667 644.622 31.4C646.622 31.5333 648.355 32.2667 649.822 33.6C651.422 34.9333 652.022 36.6667 651.622 38.8C651.355 40.4 650.955 43.4667 650.422 48C649.889 52.4 649.289 57.5333 648.622 63.4C648.089 69.2667 647.622 75.3333 647.222 81.6C646.822 87.8667 646.622 93.6667 646.622 99C646.622 104.333 646.822 108.733 647.222 112.2C647.755 115.533 648.689 117.2 650.022 117.2C651.222 117.2 652.422 116.067 653.622 113.8C654.955 111.533 656.222 108.933 657.422 106C658.622 102.933 659.622 100 660.422 97.2C661.355 94.2667 661.955 92.1333 662.222 90.8C662.622 89.4667 663.222 88.6 664.022 88.2C664.955 87.6667 665.822 87.5333 666.622 87.8C667.555 87.9333 668.289 88.4 668.822 89.2C669.489 90 669.689 91.0667 669.422 92.4C669.155 93.7333 668.555 96.3333 667.622 100.2C666.689 104.067 665.289 108.067 663.422 112.2C661.555 116.2 659.089 119.8 656.022 123C653.089 126.2 649.555 127.8 645.422 127.8C642.355 127.8 639.955 126.6 638.222 124.2C636.622 121.667 635.355 118.4 634.422 114.4C633.355 116.933 631.889 119.2 630.022 121.2C628.289 123.2 626.089 124.667 623.422 125.6C620.489 126.667 617.955 126.8 615.822 126C611.955 125.067 608.889 123 606.622 119.8C604.355 116.467 602.822 112.667 602.022 108.4C601.089 104 600.955 99.4667 601.622 94.8C602.289 90.1333 603.622 85.9333 605.622 82.2C607.755 78.4667 610.555 75.6 614.022 73.6C617.489 71.4667 621.689 70.8 626.622 71.6C629.289 72 631.622 73.4 633.622 75.8C634.155 68.2 634.755 61.1333 635.422 54.6C636.089 48.0667 636.422 43.1333 636.422 39.8ZM631.822 89.2C631.555 87.3333 631.022 85.4667 630.222 83.6C629.555 81.7333 628.489 80.6667 627.022 80.4C624.889 80 622.955 80.6667 621.222 82.4C619.622 84.1333 618.289 86.4 617.222 89.2C616.155 91.8667 615.355 94.8667 614.822 98.2C614.422 101.533 614.289 104.733 614.422 107.8C614.689 110.733 615.289 113.267 616.222 115.4C617.155 117.4 618.489 118.533 620.222 118.8C621.955 119.067 623.555 118.267 625.022 116.4C626.622 114.533 627.955 112.133 629.022 109.2C630.222 106.267 631.089 103 631.622 99.4C632.155 95.8 632.222 92.4 631.822 89.2ZM662.588 80C662.721 77.7333 663.654 76 665.388 74.8C667.254 73.6 669.188 72.8667 671.188 72.6C673.188 72.3333 674.988 72.4667 676.588 73C678.188 73.4 678.854 74.2 678.588 75.4C677.521 79.1333 676.988 83.2 676.988 87.6C677.121 91.8667 677.454 95.9333 677.988 99.8C678.654 103.533 679.521 106.667 680.588 109.2C681.654 111.733 682.721 113 683.788 113C684.988 113 686.121 111.533 687.188 108.6C688.388 105.533 689.388 102.067 690.188 98.2C691.121 94.3333 691.854 90.5333 692.388 86.8C692.921 83.0667 693.188 80.4667 693.188 79C693.188 77.6667 693.654 76.6667 694.588 76C695.654 75.3333 696.721 75 697.788 75C698.854 75 699.788 75.3333 700.588 76C701.521 76.6667 701.921 77.6667 701.788 79C701.654 79.8 701.454 81.4667 701.188 84C700.921 86.5333 700.454 89.4667 699.788 92.8C699.254 96.1333 698.454 99.6 697.388 103.2C696.321 106.8 694.988 110.133 693.388 113.2C691.788 116.267 689.854 118.8 687.588 120.8C685.454 122.8 682.921 123.867 679.988 124C676.254 124.267 673.121 123.133 670.588 120.6C668.054 117.933 666.054 114.467 664.588 110.2C663.254 105.933 662.454 101.133 662.188 95.8C661.787 90.4667 661.921 85.2 662.588 80ZM733.053 71.4C734.92 71.8 736.52 72.6667 737.853 74C739.32 75.3333 740.52 76.8 741.453 78.4C742.52 77.2 743.853 76.5333 745.453 76.4C747.053 76.2667 748.586 76.5333 750.053 77.2C751.52 77.7333 752.72 78.6667 753.653 80C754.586 81.2 754.92 82.6667 754.653 84.4C754.12 86.8 753.586 89.8 753.053 93.4C752.653 97 752.386 100.467 752.253 103.8C752.12 107.133 752.186 110 752.453 112.4C752.853 114.8 753.586 116 754.653 116C755.453 116 756.386 115 757.453 113C758.653 110.867 759.786 108.4 760.853 105.6C762.053 102.8 763.12 100 764.053 97.2C764.986 94.4 765.586 92.2667 765.853 90.8C766.253 89.4667 766.92 88.6 767.853 88.2C768.786 87.6667 769.653 87.5333 770.453 87.8C771.386 87.9333 772.12 88.4 772.653 89.2C773.32 90 773.453 91 773.053 92.2C772.786 93 772.32 94.5333 771.653 96.8C771.12 98.9333 770.386 101.333 769.453 104C768.52 106.667 767.386 109.467 766.053 112.4C764.853 115.2 763.386 117.733 761.653 120C760.053 122.133 758.186 123.8 756.053 125C754.053 126.2 751.853 126.467 749.453 125.8C745.586 124.733 742.786 122.4 741.053 118.8C739.986 122 738.52 124.867 736.653 127.4C734.786 130.067 732.386 132 729.453 133.2C726.653 134.133 724.186 134.333 722.053 133.8C718.186 132.733 715.12 130.333 712.853 126.6C710.586 122.867 709.053 118.533 708.253 113.6C707.453 108.667 707.386 103.533 708.053 98.2C708.72 92.8667 710.053 88.0667 712.053 83.8C714.186 79.5333 716.986 76.2 720.453 73.8C723.92 71.2667 728.12 70.4667 733.053 71.4ZM738.253 91.6C737.986 89.3333 737.453 87.1333 736.653 85C735.986 82.8667 734.92 81.6667 733.453 81.4C731.32 81 729.386 81.8 727.653 83.8C726.053 85.6667 724.72 88.2 723.653 91.4C722.586 94.6 721.786 98.1333 721.253 102C720.853 105.733 720.72 109.333 720.853 112.8C721.12 116.133 721.653 119 722.453 121.4C723.386 123.8 724.72 125.133 726.453 125.4C728.186 125.667 729.786 124.733 731.253 122.6C732.853 120.467 734.186 117.733 735.253 114.4C736.453 111.067 737.32 107.4 737.853 103.4C738.52 99.2667 738.653 95.3333 738.253 91.6Z" fill="white"/>
</svg>
