<svg width="224" height="126" viewBox="0 0 224 126" fill="none" xmlns="http://www.w3.org/2000/svg">
<path d="M28.8284 69.2769C32.3616 63.3707 36.0882 57.5874 40.0081 51.9273C40.1311 51.7515 40.2102 51.6197 40.2454 51.5318C40.2981 51.4263 40.3157 51.356 40.2981 51.3208C40.2981 51.2681 40.2805 51.2242 40.2454 51.189C40.2102 51.1539 40.1839 51.1011 40.1663 51.0308C40.1487 50.9429 40.1575 50.8111 40.1926 50.6353C40.6321 49.1939 41.4759 48.0689 42.7239 47.2603C42.97 47.1021 43.1897 47.0845 43.3831 47.2076C43.594 47.313 43.761 47.4712 43.8841 47.6822C43.9895 47.8931 43.9192 48.2623 43.6731 48.7896C43.427 49.3169 43.1194 49.8706 42.7503 50.4507C42.3987 51.0308 42.1087 51.4878 41.8801 51.8218C41.7923 51.9449 41.7307 52.0415 41.6956 52.1119C40.6585 53.6412 39.6301 55.1617 38.6106 56.6734C35.8684 60.6636 33.179 64.7066 30.5423 68.8023C30.4192 68.9781 30.3137 69.1275 30.2259 69.2505C30.0676 69.479 30.0061 69.6021 30.0413 69.6197C30.0764 69.6548 30.2522 69.5933 30.5686 69.4351C30.6389 69.3999 30.718 69.3648 30.8059 69.3296C33.8997 67.9937 37.2219 66.4556 40.7727 64.7154C44.3235 62.9751 47.7425 61.0855 51.0296 59.0464C54.3343 57.0074 57.1468 54.8628 59.4671 52.6128C60.7854 51.2945 61.8665 49.8707 62.7102 48.3414C63.554 46.7945 64.0022 45.3179 64.055 43.9117C64.1077 42.5054 63.5979 41.3365 62.5257 40.4048C61.4534 39.4556 59.6516 38.9107 57.1204 38.7701C53.8333 38.7173 49.7024 39.4117 44.7278 40.8531C39.7532 42.2945 34.9632 44.1665 30.3577 46.4693C25.7522 48.7544 22.3772 51.1451 20.2327 53.6412C19.5999 54.3794 19.2483 55.1089 19.178 55.8296C19.1253 56.5328 19.5559 57.1656 20.47 57.7281C20.6809 57.8511 20.8391 57.8775 20.9446 57.8072C21.0501 57.7369 21.1292 57.6402 21.1819 57.5171C21.2346 57.4292 21.2874 57.3589 21.3401 57.3062C21.3928 57.2359 21.4632 57.2095 21.551 57.2271C21.6389 57.2271 21.7532 57.2798 21.8938 57.3853C22.263 57.7017 22.4739 58.0708 22.5266 58.4927C22.5969 58.897 22.5266 59.231 22.3157 59.4947C22.1048 59.7583 21.7708 59.8287 21.3137 59.7056C19.4329 59.0376 18.2991 58.106 17.9124 56.9107C17.5432 55.6978 17.9915 54.3003 19.2571 52.7183C21.5071 50.1167 24.9788 47.6294 29.6721 45.2564C34.3831 42.8833 39.2786 40.9585 44.3587 39.482C49.4563 37.9878 53.7278 37.2759 57.1731 37.3462C60.0559 37.4869 62.1389 38.1109 63.4221 39.2183C64.7229 40.3081 65.3821 41.6792 65.3997 43.3316C65.4173 44.9664 64.969 46.6802 64.055 48.4732C63.1409 50.2662 61.9192 51.9361 60.3899 53.483C57.9114 55.9087 54.9495 58.2027 51.5042 60.3648C48.0589 62.5269 44.4729 64.4957 40.7464 66.271C37.0198 68.0464 33.4954 69.5757 30.1731 70.8589C29.7688 71.0171 29.4612 71.149 29.2503 71.2544C29.0393 71.3775 28.8635 71.5269 28.7229 71.7027C28.5823 71.8785 28.4241 72.1246 28.2483 72.441C28.178 72.5464 28.1077 72.6607 28.0374 72.7837C27.6858 73.3638 27.3255 73.9527 26.9563 74.5503C25.6204 76.6421 24.3899 78.7779 23.2649 80.9576C22.9661 81.4673 22.6936 81.6695 22.4475 81.564C22.2014 81.4585 22.1926 81.1333 22.4212 80.5884C23.7747 77.9341 25.2161 75.3238 26.7454 72.7574C26.9387 72.4234 27.0354 72.2212 27.0354 72.1509C27.0354 72.0806 26.886 72.107 26.5872 72.23C23.054 73.5308 19.4593 74.6207 15.803 75.4996C15.4866 75.5523 15.2581 75.5259 15.1175 75.4205C14.9944 75.3326 14.968 75.2095 15.0384 75.0513C15.1262 74.8931 15.3196 74.7789 15.6184 74.7085C17.4817 74.2515 19.3362 73.6978 21.1819 73.0474C23.0452 72.397 24.8645 71.7203 26.6399 71.0171C26.8509 70.9292 27.0354 70.8589 27.1936 70.8062C27.4749 70.7007 27.6858 70.6128 27.8264 70.5425C27.9846 70.4722 28.1165 70.358 28.2219 70.1998C28.3274 70.0591 28.4768 69.8394 28.6702 69.5406C28.7053 69.4527 28.7581 69.3648 28.8284 69.2769Z" fill="white"/>
<path d="M63.4485 56.8843C62.9563 56.2867 62.6751 55.7066 62.6048 55.1441C62.5696 54.3003 62.8245 53.7027 63.3694 53.3511C63.9143 52.9996 64.5647 53.1138 65.3206 53.6939C65.6018 54.0103 65.7776 54.4058 65.8479 54.8804C65.9358 55.355 65.8567 55.8999 65.6106 56.5152C65.5051 56.7261 65.4612 56.8931 65.4788 57.0162C65.5139 57.1216 65.6458 57.2271 65.8743 57.3326C67.263 57.9478 68.221 58.6597 68.7483 59.4683C69.2757 60.2769 69.0384 61.3404 68.0364 62.6587C67.5091 63.3443 67.0081 64.188 66.5335 65.19C66.0589 66.1744 65.9094 67.0445 66.0852 67.8003C66.2962 68.2925 66.8499 68.4068 67.7464 68.1431C68.6604 67.897 69.6624 67.4664 70.7522 66.8511C71.8421 66.2359 72.7825 65.6382 73.5735 65.0581C73.8196 64.8472 74.013 64.7505 74.1536 64.7681C74.2942 64.7681 74.3645 64.8384 74.3645 64.979C74.3821 65.1197 74.3118 65.2691 74.1536 65.4273C71.8157 67.4839 69.7151 68.7232 67.8518 69.1451C65.9885 69.5669 64.8723 69.1714 64.5032 67.9585C64.1341 66.7457 65.013 64.7242 67.1399 61.8941C67.7376 61.0679 67.8255 60.3999 67.4036 59.8902C66.9817 59.3628 66.3401 58.8619 65.4788 58.3873C65.4436 58.3697 65.4173 58.3521 65.3997 58.3345C65.2239 58.2115 65.0657 58.1675 64.9251 58.2027C64.802 58.2203 64.635 58.3785 64.4241 58.6773C64.2132 58.9585 64.055 59.1607 63.9495 59.2837C63.6682 59.6353 63.4221 59.8287 63.2112 59.8638C63.0003 59.8814 62.8421 59.8111 62.7366 59.6529C62.6487 59.4947 62.6223 59.3189 62.6575 59.1255C62.7102 58.9498 62.7981 58.8531 62.9212 58.8355C63.0442 58.8179 63.2991 58.5894 63.6858 58.1499C63.8616 57.9039 63.9055 57.6841 63.8176 57.4908C63.7473 57.2798 63.6243 57.0777 63.4485 56.8843ZM64.7141 55.856C64.7844 55.4165 64.7405 55.0298 64.5823 54.6958C64.4241 54.3619 64.2483 54.1949 64.055 54.1949C63.8616 54.1773 63.7737 54.4498 63.7913 55.0123C63.8089 55.1001 63.8616 55.2496 63.9495 55.4605C64.0374 55.6539 64.1341 55.8384 64.2395 56.0142C64.3626 56.19 64.4768 56.2779 64.5823 56.2779C64.6175 56.2779 64.635 56.2603 64.635 56.2251C64.6526 56.1724 64.6614 56.1197 64.6614 56.0669C64.679 55.9966 64.6966 55.9263 64.7141 55.856Z" fill="white"/>
<path d="M87.3372 64.4781C87.8118 64.232 88.093 64.2144 88.1809 64.4253C88.2688 64.6363 88.1018 64.8912 87.68 65.19C87.012 65.5943 86.1507 65.9898 85.096 66.3765C84.0589 66.7457 83.1272 66.8599 82.301 66.7193C81.4749 66.5611 81.0442 65.8931 81.0091 64.7154V64.5835C81.0266 64.3374 81.0091 64.2144 80.9563 64.2144C80.9036 64.1968 80.7542 64.2671 80.5081 64.4253C77.7835 66.2007 75.7796 67.3082 74.4964 67.7476C73.2307 68.1871 72.4837 68.2046 72.2551 67.8003C71.9739 67.2378 72.3255 66.3677 73.3098 65.19C74.2942 63.9947 75.5598 62.8609 77.1067 61.7886C78.6712 60.7164 80.1653 60.0748 81.5891 59.8638C83.013 59.6353 84.0149 60.1978 84.595 61.5513C84.6477 61.7271 84.6214 61.8853 84.5159 62.0259C84.4104 62.1665 84.2698 62.2632 84.094 62.316C83.9182 62.3687 83.7161 62.3335 83.4876 62.2105C83.2766 62.0874 83.1272 61.938 83.0393 61.7623C83.0393 61.7271 83.0481 61.6919 83.0657 61.6568C83.0833 61.6216 83.1009 61.5865 83.1184 61.5513C83.136 61.5162 83.1536 61.481 83.1712 61.4458C83.1887 61.4107 83.1887 61.3755 83.1712 61.3404C82.7317 60.7427 81.9759 60.6548 80.9036 61.0767C79.8313 61.4986 78.6975 62.1578 77.5022 63.0542C76.3069 63.9507 75.2962 64.8033 74.47 65.6119C73.6438 66.4029 73.2571 66.8863 73.3098 67.0621C73.3801 67.2378 74.0745 66.9478 75.3928 66.1919C76.7112 65.4361 78.8733 64.021 81.8792 61.9468C82.0374 61.8589 82.1956 61.8326 82.3538 61.8677C82.5296 61.8853 82.6702 61.9732 82.7757 62.1314C82.8987 62.3423 82.9075 62.5533 82.802 62.7642C82.1341 64.2056 82.055 65.0933 82.5647 65.4273C83.0921 65.7613 83.8391 65.7876 84.8059 65.5064C85.7903 65.2251 86.6341 64.8824 87.3372 64.4781Z" fill="white"/>
<path d="M98.4905 61.1294C97.6468 61.9732 96.5569 63.0015 95.221 64.2144C93.885 65.4097 92.5051 66.5523 91.0813 67.6421C89.6575 68.7144 88.4094 69.4615 87.3372 69.8833C86.2473 70.3228 85.5442 70.1822 85.2278 69.4615C85.0344 68.8111 85.3772 67.774 86.2561 66.3501C87.1175 64.9263 88.2776 63.4585 89.7366 61.9468C91.1956 60.4351 92.7337 59.2046 94.3509 58.2554C95.968 57.3062 97.4358 56.9722 98.7542 57.2535C99.1057 57.3589 99.343 57.4644 99.4661 57.5699C99.554 57.6226 99.6331 57.6665 99.7034 57.7017C99.7913 57.7193 99.888 57.7017 99.9934 57.649C100.099 57.5787 100.24 57.4556 100.415 57.2798C101.101 56.647 101.663 56.0669 102.103 55.5396C102.542 55.0123 103.008 54.3355 103.5 53.5093C104.994 50.9956 106.181 49.0708 107.06 47.7349C108.255 45.8892 109.617 44.1138 111.147 42.4087C112.676 40.7037 114.012 39.3853 115.155 38.4537C115.471 38.19 115.849 37.9966 116.288 37.8736C116.728 37.733 117.123 37.7154 117.475 37.8208C117.826 37.9087 118.029 38.1724 118.081 38.6119C118.011 39.1744 117.431 40.2642 116.341 41.8814C114.636 44.3599 112.808 46.6714 110.857 48.816C108.923 50.9429 107.086 52.8062 105.346 54.4058C104.625 55.1089 104.072 55.7154 103.685 56.2251C103.298 56.7173 102.841 57.4117 102.314 58.3081C100.521 61.2789 98.7278 64.2056 96.9348 67.0884C95.1594 69.9712 93.6653 72.3707 92.4524 74.2867C91.2571 76.2203 90.6243 77.231 90.554 77.3189C90.4309 77.5123 90.2815 77.6265 90.1057 77.6617C89.9475 77.6968 89.8333 77.6529 89.763 77.5298C89.6926 77.4068 89.7366 77.2046 89.8948 76.9234C90.8968 75.1832 92.1448 73.0035 93.6389 70.3843C95.8538 66.4996 97.6731 63.3443 99.0969 60.9185C99.4661 60.3384 99.6067 60.0748 99.5188 60.1275C99.4309 60.1802 99.1673 60.4263 98.7278 60.8658C98.6575 60.9537 98.5784 61.0415 98.4905 61.1294ZM109.67 48.104C111.674 46.0298 113.537 43.7447 115.26 41.2486C115.664 40.6333 115.902 40.2203 115.972 40.0093C116.042 39.7808 115.998 39.6929 115.84 39.7456C115.699 39.7808 115.489 39.9039 115.207 40.1148C114.944 40.3081 114.671 40.5279 114.39 40.774C114.109 41.0201 113.88 41.231 113.704 41.4068C112.773 42.3912 111.744 43.5865 110.619 44.9927C109.512 46.3814 108.572 47.6646 107.798 48.8423C107.218 49.774 106.858 50.4068 106.717 50.7408C106.576 51.0572 106.594 51.1626 106.77 51.0572C106.946 50.9341 107.218 50.6792 107.587 50.2925C107.974 49.9058 108.387 49.4751 108.826 49.0005C109.108 48.6841 109.389 48.3853 109.67 48.104ZM98.5696 58.3081C97.3567 58.1675 95.9329 58.6773 94.2981 59.8374C92.6634 60.98 91.1253 62.3248 89.6839 63.8716C88.26 65.4009 87.2581 66.6753 86.678 67.6949C86.4143 68.1695 86.2649 68.521 86.2298 68.7496C86.177 68.9957 86.3616 69.0044 86.7835 68.7759C88.0491 68.0728 89.7718 66.816 91.9514 65.0054C94.1311 63.1773 96.3899 61.147 98.7278 58.9146C98.9036 58.7564 98.9827 58.6333 98.9651 58.5455C98.9475 58.44 98.8157 58.3609 98.5696 58.3081Z" fill="white"/>
<path d="M109.67 55.9351C110.145 55.9703 110.365 56.1197 110.329 56.3833C110.294 56.6294 110.118 56.8843 109.802 57.148C109.503 57.3941 109.178 57.5611 108.826 57.649C108.492 57.7193 108.246 57.605 108.088 57.3062C108.053 57.2183 108.062 57.1392 108.115 57.0689C108.185 56.981 108.273 56.9107 108.378 56.858C108.501 56.7876 108.607 56.7261 108.695 56.6734C108.765 56.6558 108.818 56.6382 108.853 56.6206C108.888 56.6031 108.906 56.5855 108.906 56.5679C108.923 56.3746 109.002 56.2164 109.143 56.0933C109.283 55.9703 109.459 55.9175 109.67 55.9351ZM103.79 68.4595C103.105 68.4595 102.7 68.2398 102.577 67.8003C102.454 67.3609 102.516 66.8072 102.762 66.1392C102.991 65.4537 103.316 64.7417 103.738 64.0035C104.159 63.2476 104.581 62.5621 105.003 61.9468C105.425 61.314 105.759 60.8306 106.005 60.4966C106.075 60.3736 106.137 60.2857 106.19 60.233C106.084 59.9517 106.181 59.6441 106.48 59.3101C106.779 58.9585 107.13 58.7037 107.534 58.5455C107.939 58.3697 108.229 58.396 108.405 58.6246C108.528 58.8179 108.554 59.0025 108.484 59.1783C108.413 59.354 108.317 59.521 108.194 59.6792C108.158 59.7144 108.123 59.7583 108.088 59.8111C107.42 60.7603 106.691 61.8238 105.9 63.0015C105.126 64.1617 104.546 65.1373 104.159 65.9283C103.861 66.6138 104.045 66.9917 104.713 67.0621C105.399 67.1324 106.278 67.0269 107.35 66.7457C108.44 66.4644 109.433 66.1656 110.329 65.8492C111.243 65.5152 111.788 65.2955 111.964 65.19C112.157 65.0845 112.307 65.0669 112.412 65.1373C112.535 65.2076 112.588 65.3218 112.571 65.48C112.553 65.6206 112.43 65.7701 112.201 65.9283C111.059 66.5611 109.565 67.1412 107.719 67.6685C105.891 68.1958 104.581 68.4595 103.79 68.4595Z" fill="white"/>
<path d="M98.5169 89.9224C98.7454 89.4126 99.4749 87.8921 100.705 85.3609C101.918 82.8296 103.483 79.7623 105.399 76.1587C107.824 71.6236 110.206 67.3433 112.544 63.3179C113.142 62.2632 113.696 61.2964 114.205 60.4175C115.823 57.482 117.053 55.4956 117.897 54.4585C118.758 53.4214 119.54 53.3775 120.243 54.3267C120.261 54.731 120.041 55.2408 119.584 55.856C119.127 56.4537 118.582 57.0953 117.949 57.7808C117.035 58.7652 116.288 59.7144 115.708 60.6285C114.407 62.896 112.869 65.6207 111.094 68.8023C109.301 72.0015 107.824 74.6822 106.664 76.8443C106.383 77.354 106.049 77.9517 105.662 78.6373C105.293 79.2701 104.959 79.8589 104.66 80.4039C104.362 80.9664 104.186 81.3443 104.133 81.5376C104.063 81.7486 104.195 81.6695 104.529 81.3003C104.863 80.9312 105.469 80.1578 106.348 78.98C106.594 78.6636 106.84 78.3296 107.086 77.9781C109.67 74.4624 112.623 70.6568 115.946 66.5611C119.268 62.4654 122.441 59.1958 125.464 56.7525C126.906 55.6802 127.907 55.3023 128.47 55.6187C129.05 55.9175 129.305 56.5767 129.235 57.5962C129.076 59.3892 128.373 61.2437 127.125 63.1597C125.877 65.0581 124.427 66.7896 122.775 68.354C121.14 69.9185 119.672 71.0787 118.371 71.8345C117.071 72.5904 116.288 72.7222 116.025 72.23C115.99 72.1421 116.007 72.0718 116.077 72.0191C116.165 71.9839 116.262 71.9576 116.367 71.94C117.264 71.729 118.415 71.0083 119.822 69.7779C121.245 68.5474 122.652 67.106 124.04 65.4537C125.429 63.8013 126.51 62.2193 127.283 60.7076C128.074 59.1958 128.285 58.0445 127.916 57.2535C127.811 56.9371 127.283 57.1392 126.334 57.8599C123.75 59.9165 120.903 62.7818 117.791 66.4556C114.698 70.1294 111.657 73.9966 108.668 78.0572C105.662 82.1177 103.034 85.7388 100.784 88.9205C100.24 89.6939 99.7298 90.4146 99.2551 91.0826C99.0794 91.2935 98.9124 91.3462 98.7542 91.2408C98.596 91.1529 98.4905 90.9771 98.4378 90.7134C98.385 90.4673 98.4114 90.2037 98.5169 89.9224Z" fill="white"/>
<path d="M133.585 83.5415C133.392 83.4537 133.313 83.2691 133.348 82.9878C133.366 82.7066 133.559 82.232 133.928 81.564C134.28 80.896 134.851 79.9205 135.642 78.6373C136.415 77.354 137.452 75.6578 138.753 73.5484C140.23 71.1929 142.111 68.1695 144.396 64.4781C144.993 63.3531 146.215 61.2437 148.061 58.1499C149.907 55.0386 151.963 51.6812 154.231 48.0777C156.498 44.4566 158.564 41.3101 160.427 38.6382C162.308 35.9488 163.591 34.4458 164.277 34.1294C165.349 33.813 165.876 34.0767 165.859 34.9205C165.859 35.7466 165.56 36.8189 164.962 38.1373C164.382 39.438 163.758 40.6685 163.09 41.8287C162.44 42.9712 162.009 43.7095 161.798 44.0435C161.781 44.0611 161.772 44.0787 161.772 44.0962C159.364 47.981 156.7 51.8833 153.782 55.8033C150.882 59.7232 148.65 62.3511 147.085 63.6871C146.786 63.898 146.584 64.0298 146.479 64.0826C146.391 64.1353 146.312 64.188 146.241 64.2408C146.189 64.2935 146.118 64.3814 146.031 64.5044C145.943 64.6275 145.82 64.8208 145.661 65.0845L135.194 82.1441C135.246 82.1441 135.238 82.232 135.167 82.4078C135.079 82.6011 134.956 82.8033 134.798 83.0142C134.64 83.2427 134.455 83.4097 134.244 83.5152C134.016 83.6382 133.796 83.647 133.585 83.5415ZM148.667 60.233C148.421 60.6197 148.298 60.8394 148.298 60.8921C148.316 60.9449 148.483 60.7779 148.799 60.3912C150.539 58.1763 152.482 55.5132 154.626 52.4019C156.771 49.2906 158.748 46.2759 160.559 43.358C162.721 39.772 163.969 37.4605 164.303 36.4234C164.655 35.3863 164.206 35.6851 162.958 37.3199C161.2 39.7456 159.469 42.3384 157.764 45.0982C156.059 47.858 154.389 50.6353 152.754 53.4302C151.365 55.7857 150.003 58.0533 148.667 60.233Z" fill="white"/>
<path d="M165.859 64.4781C166.333 64.232 166.615 64.2144 166.702 64.4253C166.79 64.6363 166.623 64.8912 166.201 65.19C165.533 65.5943 164.672 65.9898 163.617 66.3765C162.58 66.7457 161.649 66.8599 160.823 66.7193C159.996 66.5611 159.566 65.8931 159.531 64.7154V64.5835C159.548 64.3374 159.531 64.2144 159.478 64.2144C159.425 64.1968 159.276 64.2671 159.03 64.4253C156.305 66.2007 154.301 67.3082 153.018 67.7476C151.752 68.1871 151.005 68.2046 150.777 67.8003C150.495 67.2378 150.847 66.3677 151.831 65.19C152.816 63.9947 154.081 62.8609 155.628 61.7886C157.193 60.7164 158.687 60.0748 160.111 59.8638C161.534 59.6353 162.536 60.1978 163.116 61.5513C163.169 61.7271 163.143 61.8853 163.037 62.0259C162.932 62.1665 162.791 62.2632 162.615 62.316C162.44 62.3687 162.238 62.3335 162.009 62.2105C161.798 62.0874 161.649 61.938 161.561 61.7623C161.561 61.7271 161.57 61.6919 161.587 61.6568C161.605 61.6216 161.622 61.5865 161.64 61.5513C161.657 61.5162 161.675 61.481 161.693 61.4458C161.71 61.4107 161.71 61.3755 161.693 61.3404C161.253 60.7427 160.497 60.6548 159.425 61.0767C158.353 61.4986 157.219 62.1578 156.024 63.0542C154.828 63.9507 153.818 64.8033 152.991 65.6119C152.165 66.4029 151.779 66.8863 151.831 67.0621C151.902 67.2378 152.596 66.9478 153.914 66.1919C155.233 65.4361 157.395 64.021 160.401 61.9468C160.559 61.8589 160.717 61.8326 160.875 61.8677C161.051 61.8853 161.192 61.9732 161.297 62.1314C161.42 62.3423 161.429 62.5533 161.324 62.7642C160.656 64.2056 160.576 65.0933 161.086 65.4273C161.614 65.7613 162.361 65.7876 163.327 65.5064C164.312 65.2251 165.156 64.8824 165.859 64.4781Z" fill="white"/>
<path d="M177.012 61.1294C176.168 61.9732 175.078 63.0015 173.742 64.2144C172.407 65.4097 171.027 66.5523 169.603 67.6421C168.179 68.7144 166.931 69.4615 165.859 69.8833C164.769 70.3228 164.066 70.1822 163.749 69.4615C163.556 68.8111 163.899 67.774 164.778 66.3501C165.639 64.9263 166.799 63.4585 168.258 61.9468C169.717 60.4351 171.255 59.2046 172.872 58.2554C174.49 57.3062 175.957 56.9722 177.276 57.2535C177.627 57.3589 177.865 57.4644 177.988 57.5699C178.075 57.6226 178.155 57.6665 178.225 57.7017C178.313 57.7193 178.409 57.7017 178.515 57.649C178.62 57.5787 178.761 57.4556 178.937 57.2798C179.622 56.647 180.185 56.0669 180.624 55.5396C181.064 55.0123 181.53 54.3355 182.022 53.5093C183.516 50.9956 184.702 49.0708 185.581 47.7349C186.777 45.8892 188.139 44.1138 189.668 42.4087C191.198 40.7037 192.533 39.3853 193.676 38.4537C193.992 38.19 194.37 37.9966 194.81 37.8736C195.249 37.733 195.645 37.7154 195.996 37.8208C196.348 37.9087 196.55 38.1724 196.603 38.6119C196.532 39.1744 195.952 40.2642 194.863 41.8814C193.157 44.3599 191.329 46.6714 189.378 48.816C187.445 50.9429 185.608 52.8062 183.867 54.4058C183.147 55.1089 182.593 55.7154 182.206 56.2251C181.82 56.7173 181.363 57.4117 180.835 58.3081C179.042 61.2789 177.249 64.2056 175.456 67.0884C173.681 69.9712 172.187 72.3707 170.974 74.2867C169.779 76.2203 169.146 77.231 169.075 77.3189C168.952 77.5123 168.803 77.6265 168.627 77.6617C168.469 77.6968 168.355 77.6529 168.284 77.5298C168.214 77.4068 168.258 77.2046 168.416 76.9234C169.418 75.1832 170.666 73.0035 172.16 70.3843C174.375 66.4996 176.195 63.3443 177.618 60.9185C177.988 60.3384 178.128 60.0748 178.04 60.1275C177.952 60.1802 177.689 60.4263 177.249 60.8658C177.179 60.9537 177.1 61.0415 177.012 61.1294ZM188.192 48.104C190.196 46.0298 192.059 43.7447 193.782 41.2486C194.186 40.6333 194.423 40.2203 194.493 40.0093C194.564 39.7808 194.52 39.6929 194.362 39.7456C194.221 39.7808 194.01 39.9039 193.729 40.1148C193.465 40.3081 193.193 40.5279 192.911 40.774C192.63 41.0201 192.402 41.231 192.226 41.4068C191.294 42.3912 190.266 43.5865 189.141 44.9927C188.033 46.3814 187.093 47.6646 186.32 48.8423C185.74 49.774 185.379 50.4068 185.239 50.7408C185.098 51.0572 185.115 51.1626 185.291 51.0572C185.467 50.9341 185.74 50.6792 186.109 50.2925C186.495 49.9058 186.908 49.4751 187.348 49.0005C187.629 48.6841 187.91 48.3853 188.192 48.104ZM177.091 58.3081C175.878 58.1675 174.454 58.6773 172.82 59.8374C171.185 60.98 169.647 62.3248 168.205 63.8716C166.782 65.4009 165.78 66.6753 165.199 67.6949C164.936 68.1695 164.786 68.521 164.751 68.7496C164.699 68.9957 164.883 69.0044 165.305 68.7759C166.571 68.0728 168.293 66.816 170.473 65.0054C172.653 63.1773 174.911 61.147 177.249 58.9146C177.425 58.7564 177.504 58.6333 177.487 58.5455C177.469 58.44 177.337 58.3609 177.091 58.3081Z" fill="white"/>
<path d="M188.455 64.0562C188.561 63.9507 188.631 63.8628 188.666 63.7925C188.701 63.7222 188.737 63.6431 188.772 63.5552C188.789 63.5025 188.816 63.441 188.851 63.3706C189.255 62.3863 189.747 61.4458 190.327 60.5494C191.646 58.5806 192.692 57.7896 193.465 58.1763C193.676 58.3697 193.597 58.8179 193.228 59.521C192.859 60.2066 192.384 60.9624 191.804 61.7886C191.241 62.5972 190.74 63.2652 190.301 63.7925C190.266 63.8453 190.231 63.898 190.196 63.9507C190.073 64.0738 189.976 64.2144 189.906 64.3726C189.853 64.5132 189.862 64.6802 189.932 64.8736C190.09 65.2779 190.442 65.4624 190.987 65.4273C191.549 65.3921 192.129 65.2603 192.727 65.0318C193.324 64.8033 193.764 64.6187 194.045 64.4781C194.063 64.4781 194.08 64.4693 194.098 64.4517C194.274 64.3462 194.423 64.3199 194.546 64.3726C194.687 64.4078 194.748 64.4956 194.731 64.6363C194.713 64.7769 194.564 64.9351 194.282 65.1109C193.21 65.7789 192.182 66.2095 191.198 66.4029C190.213 66.5787 189.475 66.271 188.983 65.48C188.912 65.3394 188.842 65.2867 188.772 65.3218C188.719 65.3394 188.649 65.4097 188.561 65.5328C188.543 65.5679 188.526 65.5943 188.508 65.6119C187.963 66.2798 187.216 67.0357 186.267 67.8794C185.335 68.7056 184.404 69.3121 183.472 69.6988C182.558 70.0855 181.864 69.9273 181.389 69.2242C181.143 68.7671 181.108 68.1255 181.283 67.2994C181.407 66.5962 181.635 65.814 181.969 64.9527C182.162 64.4605 182.452 63.854 182.839 63.1333C183.226 62.4126 183.639 61.7359 184.078 61.1031C184.518 60.4527 184.896 60.022 185.212 59.8111C185.581 59.8111 185.854 59.9253 186.03 60.1539C186.223 60.3648 186.188 60.7955 185.924 61.4458C185.819 61.6568 185.713 61.8238 185.608 61.9468C185.502 62.0699 185.362 62.2017 185.186 62.3423C184.992 62.5181 184.729 62.773 184.395 63.107C184.166 63.3355 183.947 63.6343 183.736 64.0035C183.525 64.3726 183.358 64.7066 183.235 65.0054C182.496 66.7632 182.206 67.8707 182.365 68.3277C182.523 68.8023 182.945 68.8374 183.63 68.4332C184.333 68.0464 185.124 67.44 186.003 66.6138C186.9 65.7701 187.717 64.9175 188.455 64.0562Z" fill="white"/>
<path d="M207.73 64.4781C208.204 64.232 208.486 64.2144 208.574 64.4253C208.661 64.6363 208.494 64.8912 208.073 65.19C207.405 65.5943 206.543 65.9898 205.489 66.3765C204.451 66.7457 203.52 66.8599 202.694 66.7193C201.867 66.5611 201.437 65.8931 201.402 64.7154V64.5835C201.419 64.3374 201.402 64.2144 201.349 64.2144C201.296 64.1968 201.147 64.2671 200.901 64.4253C198.176 66.2007 196.172 67.3082 194.889 67.7476C193.623 68.1871 192.876 68.2046 192.648 67.8003C192.366 67.2378 192.718 66.3677 193.702 65.19C194.687 63.9947 195.952 62.8609 197.499 61.7886C199.064 60.7164 200.558 60.0748 201.982 59.8638C203.406 59.6353 204.407 60.1978 204.988 61.5513C205.04 61.7271 205.014 61.8853 204.908 62.0259C204.803 62.1665 204.662 62.2632 204.487 62.316C204.311 62.3687 204.109 62.3335 203.88 62.2105C203.669 62.0874 203.52 61.938 203.432 61.7623C203.432 61.7271 203.441 61.6919 203.458 61.6568C203.476 61.6216 203.493 61.5865 203.511 61.5513C203.529 61.5162 203.546 61.481 203.564 61.4458C203.581 61.4107 203.581 61.3755 203.564 61.3404C203.124 60.7427 202.368 60.6548 201.296 61.0767C200.224 61.4986 199.09 62.1578 197.895 63.0542C196.699 63.9507 195.689 64.8033 194.863 65.6119C194.036 66.4029 193.65 66.8863 193.702 67.0621C193.773 67.2378 194.467 66.9478 195.785 66.1919C197.104 65.4361 199.266 64.021 202.272 61.9468C202.43 61.8589 202.588 61.8326 202.746 61.8677C202.922 61.8853 203.063 61.9732 203.168 62.1314C203.291 62.3423 203.3 62.5533 203.195 62.7642C202.527 64.2056 202.448 65.0933 202.957 65.4273C203.485 65.7613 204.232 65.7876 205.199 65.5064C206.183 65.2251 207.027 64.8824 207.73 64.4781Z" fill="white"/>
</svg>
