<svg width="2245" height="503" viewBox="0 0 2245 503" fill="none" xmlns="http://www.w3.org/2000/svg">
<path d="M128.742 297.23C161.457 242.543 195.962 188.995 232.258 136.586C233.397 134.958 234.13 133.738 234.455 132.924C234.943 131.947 235.106 131.296 234.943 130.971C234.943 130.482 234.781 130.076 234.455 129.75C234.13 129.424 233.885 128.936 233.723 128.285C233.56 127.471 233.641 126.251 233.967 124.623C238.036 111.277 245.848 100.86 257.404 93.373C259.683 91.9082 261.717 91.7454 263.508 92.8848C265.461 93.8613 267.007 95.3262 268.146 97.2793C269.123 99.2324 268.472 102.65 266.193 107.533C263.915 112.416 261.066 117.543 257.648 122.914C254.393 128.285 251.708 132.517 249.592 135.609C248.778 136.749 248.208 137.644 247.883 138.295C238.28 152.455 228.758 166.534 219.318 180.531C193.928 217.478 169.025 254.913 144.611 292.836C143.472 294.464 142.495 295.847 141.682 296.986C140.217 299.102 139.647 300.242 139.973 300.404C140.298 300.73 141.926 300.16 144.855 298.695C145.507 298.37 146.239 298.044 147.053 297.719C175.699 285.349 206.46 271.107 239.338 254.994C272.215 238.881 303.872 221.384 334.309 202.504C364.908 183.624 390.949 163.767 412.434 142.934C424.641 130.727 434.65 117.543 442.463 103.383C450.275 89.0599 454.426 75.388 454.914 62.3672C455.402 49.3464 450.682 38.5228 440.754 29.8965C430.826 21.1074 414.143 16.0618 390.705 14.7598C360.269 14.2715 322.02 20.7005 275.959 34.0469C229.898 47.3932 185.546 64.7272 142.902 86.0488C100.259 107.208 69.0091 129.343 49.1523 152.455C43.293 159.291 40.0378 166.046 39.3867 172.719C38.8984 179.229 42.8861 185.089 51.3496 190.297C53.3027 191.436 54.7676 191.68 55.7441 191.029C56.7207 190.378 57.4531 189.483 57.9414 188.344C58.4297 187.53 58.918 186.879 59.4062 186.391C59.8945 185.74 60.5456 185.495 61.3594 185.658C62.1732 185.658 63.2311 186.146 64.5332 187.123C67.9512 190.053 69.9043 193.471 70.3926 197.377C71.0436 201.12 70.3926 204.213 68.4395 206.654C66.4863 209.096 63.3939 209.747 59.1621 208.607C41.7467 202.423 31.2487 193.796 27.668 182.729C24.25 171.498 28.4004 158.559 40.1191 143.91C60.9525 119.822 93.0977 96.791 136.555 74.8184C180.174 52.8457 225.503 35.0234 272.541 21.3516C319.742 7.51693 359.292 0.92513 391.193 1.57617C417.886 2.87826 437.173 8.65625 449.055 18.9102C461.099 29.0013 467.202 41.6966 467.365 56.9961C467.528 72.1328 463.378 88.002 454.914 104.604C446.451 121.205 435.139 136.667 420.979 150.99C398.029 173.451 370.604 194.691 338.703 214.711C306.802 234.73 273.599 252.96 239.094 269.398C204.589 285.837 171.955 299.997 141.193 311.879C137.45 313.344 134.602 314.564 132.648 315.541C130.695 316.68 129.068 318.064 127.766 319.691C126.464 321.319 124.999 323.598 123.371 326.527C122.72 327.504 122.069 328.562 121.418 329.701C118.163 335.072 114.826 340.525 111.408 346.059C99.0384 365.427 87.6452 385.202 77.2285 405.385C74.4616 410.105 71.9388 411.977 69.6602 411C67.3815 410.023 67.3001 407.012 69.416 401.967C81.9486 377.39 95.2949 353.22 109.455 329.457C111.245 326.365 112.141 324.493 112.141 323.842C112.141 323.191 110.757 323.435 107.99 324.574C75.2754 336.618 41.9909 346.71 8.13672 354.848C5.20703 355.336 3.09115 355.092 1.78906 354.115C0.64974 353.301 0.405599 352.162 1.05664 350.697C1.87044 349.232 3.66081 348.174 6.42773 347.523C23.6803 343.292 40.8516 338.165 57.9414 332.143C75.194 326.12 92.0397 319.854 108.479 313.344C110.432 312.53 112.141 311.879 113.605 311.391C116.21 310.414 118.163 309.6 119.465 308.949C120.93 308.298 122.15 307.24 123.127 305.775C124.104 304.473 125.487 302.439 127.277 299.672C127.603 298.858 128.091 298.044 128.742 297.23ZM449.299 182.484C444.742 176.951 442.137 171.579 441.486 166.371C441.161 158.559 443.521 153.025 448.566 149.77C453.612 146.514 459.634 147.572 466.633 152.943C469.237 155.873 470.865 159.535 471.516 163.93C472.329 168.324 471.597 173.37 469.318 179.066C468.342 181.02 467.935 182.566 468.098 183.705C468.423 184.682 469.644 185.658 471.76 186.635C484.618 192.331 493.488 198.923 498.371 206.41C503.254 213.897 501.057 223.744 491.779 235.951C486.896 242.299 482.258 250.111 477.863 259.389C473.469 268.503 472.085 276.56 473.713 283.559C475.666 288.116 480.793 289.174 489.094 286.732C497.557 284.454 506.835 280.466 516.926 274.77C527.017 269.073 535.725 263.539 543.049 258.168C545.327 256.215 547.118 255.32 548.42 255.482C549.722 255.482 550.373 256.133 550.373 257.436C550.536 258.738 549.885 260.121 548.42 261.586C526.773 280.629 507.323 292.104 490.07 296.01C472.818 299.916 462.482 296.254 459.064 285.023C455.646 273.793 463.785 255.076 483.479 228.871C489.012 221.221 489.826 215.036 485.92 210.316C482.014 205.434 476.073 200.795 468.098 196.4C467.772 196.238 467.528 196.075 467.365 195.912C465.738 194.773 464.273 194.366 462.971 194.691C461.831 194.854 460.285 196.319 458.332 199.086C456.379 201.69 454.914 203.562 453.938 204.701C451.333 207.956 449.055 209.747 447.102 210.072C445.148 210.235 443.684 209.584 442.707 208.119C441.893 206.654 441.649 205.027 441.975 203.236C442.463 201.609 443.277 200.714 444.416 200.551C445.555 200.388 447.915 198.272 451.496 194.203C453.124 191.924 453.531 189.89 452.717 188.1C452.066 186.146 450.926 184.275 449.299 182.484ZM461.018 172.963C461.669 168.894 461.262 165.313 459.797 162.221C458.332 159.128 456.704 157.582 454.914 157.582C453.124 157.419 452.31 159.942 452.473 165.15C452.635 165.964 453.124 167.348 453.938 169.301C454.751 171.091 455.646 172.8 456.623 174.428C457.762 176.055 458.82 176.869 459.797 176.869C460.122 176.869 460.285 176.706 460.285 176.381C460.448 175.893 460.529 175.404 460.529 174.916C460.692 174.265 460.855 173.614 461.018 172.963ZM670.49 252.797C674.885 250.518 677.489 250.355 678.303 252.309C679.117 254.262 677.57 256.622 673.664 259.389C667.479 263.132 659.504 266.794 649.738 270.375C640.135 273.793 631.509 274.851 623.859 273.549C616.21 272.084 612.222 265.899 611.896 254.994V253.773C612.059 251.495 611.896 250.355 611.408 250.355C610.92 250.193 609.536 250.844 607.258 252.309C582.03 268.747 563.475 279.001 551.594 283.07C539.875 287.139 532.958 287.302 530.842 283.559C528.238 278.35 531.493 270.294 540.607 259.389C549.722 248.321 561.441 237.823 575.764 227.895C590.249 217.966 604.084 212.025 617.268 210.072C630.451 207.956 639.729 213.165 645.1 225.697C645.588 227.325 645.344 228.79 644.367 230.092C643.391 231.394 642.089 232.289 640.461 232.777C638.833 233.266 636.962 232.94 634.846 231.801C632.893 230.661 631.509 229.278 630.695 227.65C630.695 227.325 630.777 226.999 630.939 226.674C631.102 226.348 631.265 226.023 631.428 225.697C631.59 225.372 631.753 225.046 631.916 224.721C632.079 224.395 632.079 224.07 631.916 223.744C627.847 218.21 620.848 217.396 610.92 221.303C600.992 225.209 590.493 231.312 579.426 239.613C568.358 247.914 558.999 255.808 551.35 263.295C543.7 270.619 540.119 275.095 540.607 276.723C541.258 278.35 547.688 275.665 559.895 268.666C572.102 261.667 592.121 248.565 619.953 229.359C621.418 228.546 622.883 228.301 624.348 228.627C625.975 228.79 627.277 229.604 628.254 231.068C629.393 233.021 629.475 234.975 628.498 236.928C622.313 250.274 621.581 258.493 626.301 261.586C631.184 264.678 638.101 264.923 647.053 262.318C656.167 259.714 663.98 256.54 670.49 252.797ZM773.762 221.791C765.949 229.604 755.858 239.125 743.488 250.355C731.118 261.423 718.342 272.003 705.158 282.094C691.975 292.022 680.419 298.939 670.49 302.846C660.399 306.915 653.889 305.613 650.959 298.939C649.169 292.917 652.342 283.314 660.48 270.131C668.456 256.947 679.198 243.357 692.707 229.359C706.216 215.362 720.458 203.969 735.432 195.18C750.406 186.391 763.996 183.298 776.203 185.902C779.458 186.879 781.656 187.855 782.795 188.832C783.609 189.32 784.341 189.727 784.992 190.053C785.806 190.215 786.701 190.053 787.678 189.564C788.654 188.913 789.956 187.774 791.584 186.146C797.932 180.287 803.14 174.916 807.209 170.033C811.278 165.15 815.591 158.884 820.148 151.234C833.983 127.96 844.969 110.137 853.107 97.7676C864.175 80.6777 876.789 64.2389 890.949 48.4512C905.109 32.6634 917.479 20.4564 928.059 11.8301C930.988 9.38867 934.488 7.59831 938.557 6.45898C942.626 5.1569 946.288 4.99414 949.543 5.9707C952.798 6.78451 954.67 9.22591 955.158 13.2949C954.507 18.5033 949.136 28.5944 939.045 43.5684C923.257 66.5176 906.33 87.9206 888.264 107.777C870.36 127.471 853.352 144.724 837.238 159.535C830.565 166.046 825.438 171.661 821.857 176.381C818.277 180.938 814.045 187.367 809.162 195.668C792.561 223.174 775.959 250.274 759.357 276.967C742.919 303.66 729.084 325.876 717.854 343.617C706.786 361.521 700.926 370.88 700.275 371.693C699.136 373.484 697.753 374.542 696.125 374.867C694.66 375.193 693.602 374.786 692.951 373.646C692.3 372.507 692.707 370.635 694.172 368.031C703.449 351.918 715.005 331.736 728.84 307.484C749.348 271.514 766.193 242.299 779.377 219.838C782.795 214.467 784.097 212.025 783.283 212.514C782.469 213.002 780.028 215.281 775.959 219.35C775.308 220.163 774.576 220.977 773.762 221.791ZM877.277 101.186C895.832 81.9798 913.085 60.821 929.035 37.709C932.779 32.0124 934.976 28.1875 935.627 26.2344C936.278 24.1185 935.871 23.3047 934.406 23.793C933.104 24.1185 931.151 25.2578 928.547 27.2109C926.105 29.0013 923.583 31.0358 920.979 33.3145C918.374 35.5931 916.258 37.5462 914.631 39.1738C906.005 48.2884 896.483 59.3561 886.066 72.377C875.812 85.235 867.105 97.1165 859.943 108.021C854.572 116.648 851.236 122.507 849.934 125.6C848.632 128.529 848.794 129.506 850.422 128.529C852.049 127.39 854.572 125.03 857.99 121.449C861.571 117.868 865.396 113.881 869.465 109.486C872.069 106.557 874.673 103.79 877.277 101.186ZM774.494 195.668C763.264 194.366 750.08 199.086 734.943 209.828C719.807 220.408 705.565 232.859 692.219 247.182C679.035 261.342 669.758 273.142 664.387 282.582C661.945 286.977 660.562 290.232 660.236 292.348C659.748 294.626 661.457 294.708 665.363 292.592C677.082 286.081 693.033 274.444 713.215 257.68C733.397 240.753 754.312 221.954 775.959 201.283C777.587 199.818 778.319 198.679 778.156 197.865C777.993 196.889 776.773 196.156 774.494 195.668ZM877.277 173.695C881.672 174.021 883.706 175.404 883.381 177.846C883.055 180.124 881.428 182.484 878.498 184.926C875.731 187.204 872.72 188.751 869.465 189.564C866.372 190.215 864.094 189.158 862.629 186.391C862.303 185.577 862.385 184.844 862.873 184.193C863.524 183.38 864.338 182.729 865.314 182.24C866.454 181.589 867.43 181.02 868.244 180.531C868.895 180.368 869.383 180.206 869.709 180.043C870.035 179.88 870.197 179.717 870.197 179.555C870.36 177.764 871.092 176.299 872.395 175.16C873.697 174.021 875.324 173.533 877.277 173.695ZM822.834 289.662C816.486 289.662 812.743 287.628 811.604 283.559C810.464 279.49 811.034 274.363 813.312 268.178C815.428 261.83 818.439 255.238 822.346 248.402C826.252 241.404 830.158 235.056 834.064 229.359C837.971 223.5 841.063 219.024 843.342 215.932C843.993 214.792 844.562 213.979 845.051 213.49C844.074 210.886 844.969 208.038 847.736 204.945C850.503 201.69 853.758 199.33 857.502 197.865C861.245 196.238 863.931 196.482 865.559 198.598C866.698 200.388 866.942 202.097 866.291 203.725C865.64 205.352 864.745 206.898 863.605 208.363C863.28 208.689 862.954 209.096 862.629 209.584C856.444 218.373 849.689 228.22 842.365 239.125C835.204 249.867 829.833 258.9 826.252 266.225C823.485 272.572 825.194 276.072 831.379 276.723C837.727 277.374 845.865 276.397 855.793 273.793C865.884 271.189 875.08 268.422 883.381 265.492C891.844 262.4 896.89 260.365 898.518 259.389C900.308 258.412 901.691 258.249 902.668 258.9C903.807 259.551 904.296 260.609 904.133 262.074C903.97 263.376 902.831 264.76 900.715 266.225C890.135 272.084 876.301 277.455 859.211 282.338C842.284 287.221 830.158 289.662 822.834 289.662ZM774.006 488.393C776.122 483.673 782.876 469.594 794.27 446.156C805.5 422.719 819.986 394.317 837.727 360.951C860.188 318.959 882.242 279.327 903.889 242.055C909.423 232.289 914.549 223.337 919.27 215.199C934.243 188.018 945.637 169.626 953.449 160.023C961.424 150.421 968.667 150.014 975.178 158.803C975.34 162.546 973.306 167.266 969.074 172.963C964.842 178.497 959.797 184.438 953.938 190.785C945.474 199.9 938.557 208.689 933.186 217.152C921.141 238.148 906.9 263.376 890.461 292.836C873.859 322.458 860.188 347.279 849.445 367.299C846.841 372.019 843.749 377.553 840.168 383.9C836.75 389.76 833.658 395.212 830.891 400.258C828.124 405.466 826.496 408.965 826.008 410.756C825.357 412.709 826.577 411.977 829.67 408.559C832.762 405.141 838.378 397.979 846.516 387.074C848.794 384.145 851.073 381.052 853.352 377.797C877.277 345.245 904.621 310.007 935.383 272.084C966.145 234.161 995.523 203.887 1023.52 181.264C1036.86 171.335 1046.14 167.836 1051.35 170.766C1056.72 173.533 1059.08 179.636 1058.43 189.076C1056.96 205.678 1050.45 222.849 1038.9 240.59C1027.34 258.168 1013.91 274.2 998.615 288.686C983.479 303.171 969.888 313.913 957.844 320.912C945.799 327.911 938.557 329.132 936.115 324.574C935.79 323.76 935.952 323.109 936.604 322.621C937.417 322.296 938.312 322.051 939.289 321.889C947.59 319.936 958.251 313.262 971.271 301.869C984.455 290.476 997.476 277.13 1010.33 261.83C1023.19 246.531 1033.2 231.882 1040.36 217.885C1047.69 203.887 1049.64 193.227 1046.22 185.902C1045.25 182.973 1040.36 184.844 1031.57 191.518C1007.65 210.561 981.281 237.09 952.473 271.107C923.827 305.124 895.669 340.932 868 378.529C840.168 416.127 815.835 449.656 795.002 479.115C789.956 486.277 785.236 492.95 780.842 499.135C779.214 501.088 777.668 501.576 776.203 500.6C774.738 499.786 773.762 498.158 773.273 495.717C772.785 493.438 773.029 490.997 774.006 488.393ZM1316 132.436C1312.25 121.368 1314.13 110.137 1321.61 98.7441C1329.1 87.1882 1338.54 76.6901 1349.93 67.25C1361.33 57.8099 1371.09 50.5671 1379.23 45.5215C1386.23 40.6387 1396.32 34.6979 1409.5 27.6992C1422.85 20.5378 1436.85 14.6784 1451.5 10.1211C1466.31 5.40104 1479.33 4.3431 1490.56 6.94727C1501.95 9.55143 1509.19 18.1777 1512.29 32.8262C1514.4 49.1022 1508.87 71.5632 1495.69 100.209C1482.66 128.692 1466.55 158.64 1447.35 190.053C1428.14 221.303 1410.4 249.216 1394.12 273.793C1384.85 288.116 1377.36 299.835 1371.66 308.949C1367.59 315.134 1365.97 318.552 1366.78 319.203C1367.59 319.854 1371.17 318.715 1377.52 315.785C1389.89 310.414 1406.33 303.741 1426.84 295.766C1447.51 287.953 1469.81 280.466 1493.73 273.305C1517.82 266.143 1541.34 261.016 1564.29 257.924C1587.24 254.831 1607.26 255.482 1624.35 259.877C1641.44 264.109 1653.32 273.712 1659.99 288.686C1660.15 288.848 1660.24 289.011 1660.24 289.174C1660.89 290.801 1661.29 292.429 1661.46 294.057C1661.78 295.847 1661.13 297.149 1659.5 297.963C1657.55 298.614 1656 298.288 1654.87 296.986C1653.89 295.847 1653.16 294.464 1652.67 292.836C1646.48 279.164 1634.52 271.026 1616.78 268.422C1599.04 265.818 1578.12 266.876 1554.04 271.596C1530.11 276.153 1505.7 282.582 1480.79 290.883C1456.05 299.184 1433.51 307.484 1413.17 315.785C1392.98 324.249 1377.77 330.84 1367.51 335.561C1361.98 338.002 1357.75 340.036 1354.82 341.664C1352.05 343.454 1349.69 345.57 1347.74 348.012C1345.95 350.616 1343.67 354.197 1340.9 358.754C1340.25 359.893 1339.6 361.114 1338.95 362.416C1337.16 365.183 1335.45 368.031 1333.82 370.961C1331.87 374.216 1329.91 377.39 1327.96 380.482C1326.33 382.924 1324.62 384.226 1322.83 384.389C1321.04 384.551 1319.82 383.738 1319.17 381.947C1318.52 380.32 1319.01 377.878 1320.64 374.623C1322.75 371.042 1324.87 367.543 1326.98 364.125C1327.8 362.66 1328.61 361.195 1329.43 359.73C1329.75 359.405 1330.24 358.754 1330.89 357.777C1331.54 356.638 1332.27 355.336 1333.09 353.871C1333.9 352.569 1334.63 351.348 1335.29 350.209C1334.31 350.697 1333.17 351.186 1331.87 351.674C1330.57 352.325 1329.34 352.895 1328.21 353.383C1327.23 354.034 1326.5 354.441 1326.01 354.604C1294.92 368.926 1264.57 384.551 1234.94 401.479C1232.99 402.781 1231.53 403.92 1230.55 404.896C1229.57 406.036 1228.6 407.582 1227.62 409.535C1225.5 412.79 1222.74 415.15 1219.32 416.615C1215.9 418.243 1212.32 419.464 1208.58 420.277C1206.79 420.603 1204.91 420.603 1202.96 420.277C1201.17 420.115 1199.71 419.219 1198.57 417.592C1196.78 414.337 1196.94 411.081 1199.05 407.826C1201.33 404.571 1203.86 402.13 1206.62 400.502C1247.48 376.413 1289.55 354.766 1332.84 335.561C1337.89 333.282 1341.55 331.492 1343.83 330.189C1346.27 328.887 1348.14 327.423 1349.45 325.795C1350.75 324.167 1352.29 321.807 1354.08 318.715C1355.22 316.599 1356.69 314.076 1358.48 311.146C1361.73 305.45 1367.35 296.417 1375.32 284.047C1387.04 265.818 1400.88 243.682 1416.83 217.641C1432.78 191.436 1448 164.825 1462.48 137.807C1477.13 110.626 1488.04 86.3743 1495.2 65.0527C1502.52 43.7311 1503.17 28.9199 1497.15 20.6191C1490.15 13.2949 1478.19 12.1556 1461.26 17.2012C1444.33 22.2467 1426.11 30.7103 1406.57 42.5918C1387.04 54.4733 1369.87 67.1686 1355.06 80.6777C1340.25 94.0241 1331.46 105.417 1328.69 114.857C1328.37 116.485 1328.12 117.706 1327.96 118.52C1327.96 119.333 1328.04 119.903 1328.21 120.229C1328.37 120.391 1328.53 120.554 1328.69 120.717C1329.02 120.88 1329.26 121.124 1329.43 121.449C1329.59 121.612 1329.83 121.938 1330.16 122.426C1331.46 126.332 1331.22 129.669 1329.43 132.436C1327.64 135.04 1325.28 136.505 1322.35 136.83C1319.58 136.993 1317.46 135.528 1316 132.436ZM1847.74 252.797C1852.13 250.518 1854.74 250.355 1855.55 252.309C1856.36 254.262 1854.82 256.622 1850.91 259.389C1844.73 263.132 1836.75 266.794 1826.98 270.375C1817.38 273.793 1808.76 274.851 1801.11 273.549C1793.46 272.084 1789.47 265.899 1789.14 254.994V253.773C1789.31 251.495 1789.14 250.355 1788.65 250.355C1788.17 250.193 1786.78 250.844 1784.5 252.309C1759.28 268.747 1740.72 279.001 1728.84 283.07C1717.12 287.139 1710.2 287.302 1708.09 283.559C1705.48 278.35 1708.74 270.294 1717.85 259.389C1726.97 248.321 1738.69 237.823 1753.01 227.895C1767.5 217.966 1781.33 212.025 1794.51 210.072C1807.7 207.956 1816.97 213.165 1822.35 225.697C1822.83 227.325 1822.59 228.79 1821.61 230.092C1820.64 231.394 1819.33 232.289 1817.71 232.777C1816.08 233.266 1814.21 232.94 1812.09 231.801C1810.14 230.661 1808.76 229.278 1807.94 227.65C1807.94 227.325 1808.02 226.999 1808.19 226.674C1808.35 226.348 1808.51 226.023 1808.67 225.697C1808.84 225.372 1809 225.046 1809.16 224.721C1809.32 224.395 1809.32 224.07 1809.16 223.744C1805.09 218.21 1798.09 217.396 1788.17 221.303C1778.24 225.209 1767.74 231.312 1756.67 239.613C1745.6 247.914 1736.25 255.808 1728.6 263.295C1720.95 270.619 1717.37 275.095 1717.85 276.723C1718.5 278.35 1724.93 275.665 1737.14 268.666C1749.35 261.667 1769.37 248.565 1797.2 229.359C1798.66 228.546 1800.13 228.301 1801.59 228.627C1803.22 228.79 1804.52 229.604 1805.5 231.068C1806.64 233.021 1806.72 234.975 1805.74 236.928C1799.56 250.274 1798.83 258.493 1803.55 261.586C1808.43 264.678 1815.35 264.923 1824.3 262.318C1833.41 259.714 1841.23 256.54 1847.74 252.797ZM1951.01 221.791C1943.2 229.604 1933.1 239.125 1920.73 250.355C1908.36 261.423 1895.59 272.003 1882.4 282.094C1869.22 292.022 1857.66 298.939 1847.74 302.846C1837.65 306.915 1831.13 305.613 1828.21 298.939C1826.41 292.917 1829.59 283.314 1837.73 270.131C1845.7 256.947 1856.44 243.357 1869.95 229.359C1883.46 215.362 1897.7 203.969 1912.68 195.18C1927.65 186.391 1941.24 183.298 1953.45 185.902C1956.7 186.879 1958.9 187.855 1960.04 188.832C1960.85 189.32 1961.59 189.727 1962.24 190.053C1963.05 190.215 1963.95 190.053 1964.92 189.564C1965.9 188.913 1967.2 187.774 1968.83 186.146C1975.18 180.287 1980.39 174.916 1984.46 170.033C1988.52 165.15 1992.84 158.884 1997.39 151.234C2011.23 127.96 2022.22 110.137 2030.35 97.7676C2041.42 80.6777 2054.04 64.2389 2068.2 48.4512C2082.36 32.6634 2094.73 20.4564 2105.3 11.8301C2108.23 9.38867 2111.73 7.59831 2115.8 6.45898C2119.87 5.1569 2123.53 4.99414 2126.79 5.9707C2130.04 6.78451 2131.92 9.22591 2132.4 13.2949C2131.75 18.5033 2126.38 28.5944 2116.29 43.5684C2100.5 66.5176 2083.58 87.9206 2065.51 107.777C2047.61 127.471 2030.6 144.724 2014.48 159.535C2007.81 166.046 2002.68 171.661 1999.1 176.381C1995.52 180.938 1991.29 187.367 1986.41 195.668C1969.81 223.174 1953.21 250.274 1936.6 276.967C1920.16 303.66 1906.33 325.876 1895.1 343.617C1884.03 361.521 1878.17 370.88 1877.52 371.693C1876.38 373.484 1875 374.542 1873.37 374.867C1871.91 375.193 1870.85 374.786 1870.2 373.646C1869.55 372.507 1869.95 370.635 1871.42 368.031C1880.7 351.918 1892.25 331.736 1906.09 307.484C1926.59 271.514 1943.44 242.299 1956.62 219.838C1960.04 214.467 1961.34 212.025 1960.53 212.514C1959.72 213.002 1957.27 215.281 1953.21 219.35C1952.55 220.163 1951.82 220.977 1951.01 221.791ZM2054.52 101.186C2073.08 81.9798 2090.33 60.821 2106.28 37.709C2110.02 32.0124 2112.22 28.1875 2112.87 26.2344C2113.52 24.1185 2113.12 23.3047 2111.65 23.793C2110.35 24.1185 2108.4 25.2578 2105.79 27.2109C2103.35 29.0013 2100.83 31.0358 2098.22 33.3145C2095.62 35.5931 2093.5 37.5462 2091.88 39.1738C2083.25 48.2884 2073.73 59.3561 2063.31 72.377C2053.06 85.235 2044.35 97.1165 2037.19 108.021C2031.82 116.648 2028.48 122.507 2027.18 125.6C2025.88 128.529 2026.04 129.506 2027.67 128.529C2029.3 127.39 2031.82 125.03 2035.24 121.449C2038.82 117.868 2042.64 113.881 2046.71 109.486C2049.32 106.557 2051.92 103.79 2054.52 101.186ZM1951.74 195.668C1940.51 194.366 1927.33 199.086 1912.19 209.828C1897.05 220.408 1882.81 232.859 1869.46 247.182C1856.28 261.342 1847 273.142 1841.63 282.582C1839.19 286.977 1837.81 290.232 1837.48 292.348C1836.99 294.626 1838.7 294.708 1842.61 292.592C1854.33 286.081 1870.28 274.444 1890.46 257.68C1910.64 240.753 1931.56 221.954 1953.21 201.283C1954.83 199.818 1955.57 198.679 1955.4 197.865C1955.24 196.889 1954.02 196.156 1951.74 195.668ZM2056.96 248.891C2057.94 247.914 2058.59 247.1 2058.92 246.449C2059.24 245.798 2059.57 245.066 2059.89 244.252C2060.06 243.764 2060.3 243.194 2060.63 242.543C2064.37 233.428 2068.93 224.721 2074.3 216.42C2086.51 198.191 2096.19 190.867 2103.35 194.447C2105.3 196.238 2104.57 200.388 2101.15 206.898C2097.74 213.246 2093.34 220.245 2087.97 227.895C2082.76 235.382 2078.12 241.566 2074.05 246.449C2073.73 246.938 2073.4 247.426 2073.08 247.914C2071.94 249.053 2071.04 250.355 2070.39 251.82C2069.9 253.122 2069.99 254.669 2070.64 256.459C2072.1 260.202 2075.36 261.911 2080.4 261.586C2085.61 261.26 2090.98 260.04 2096.52 257.924C2102.05 255.808 2106.12 254.099 2108.72 252.797C2108.89 252.797 2109.05 252.715 2109.21 252.553C2110.84 251.576 2112.22 251.332 2113.36 251.82C2114.66 252.146 2115.23 252.96 2115.07 254.262C2114.91 255.564 2113.52 257.029 2110.92 258.656C2100.99 264.841 2091.47 268.829 2082.36 270.619C2073.24 272.247 2066.4 269.398 2061.85 262.074C2061.2 260.772 2060.55 260.284 2059.89 260.609C2059.41 260.772 2058.76 261.423 2057.94 262.562C2057.78 262.888 2057.62 263.132 2057.45 263.295C2052.41 269.48 2045.49 276.479 2036.7 284.291C2028.07 291.941 2019.45 297.556 2010.82 301.137C2002.36 304.717 1995.93 303.253 1991.54 296.742C1989.26 292.51 1988.93 286.57 1990.56 278.92C1991.7 272.41 1993.81 265.167 1996.91 257.191C1998.7 252.634 2001.38 247.019 2004.96 240.346C2008.54 233.673 2012.37 227.406 2016.44 221.547C2020.51 215.525 2024.01 211.537 2026.94 209.584C2030.35 209.584 2032.88 210.642 2034.5 212.758C2036.29 214.711 2035.97 218.699 2033.53 224.721C2032.55 226.674 2031.57 228.22 2030.6 229.359C2029.62 230.499 2028.32 231.719 2026.69 233.021C2024.9 234.649 2022.46 237.009 2019.37 240.102C2017.25 242.217 2015.22 244.984 2013.26 248.402C2011.31 251.82 2009.76 254.913 2008.62 257.68C2001.79 273.956 1999.1 284.21 2000.57 288.441C2002.03 292.836 2005.94 293.161 2012.29 289.418C2018.8 285.837 2026.12 280.222 2034.26 272.572C2042.56 264.76 2050.13 256.866 2056.96 248.891ZM2235.43 252.797C2239.83 250.518 2242.43 250.355 2243.24 252.309C2244.06 254.262 2242.51 256.622 2238.61 259.389C2232.42 263.132 2224.45 266.794 2214.68 270.375C2205.08 273.793 2196.45 274.851 2188.8 273.549C2181.15 272.084 2177.16 265.899 2176.84 254.994V253.773C2177 251.495 2176.84 250.355 2176.35 250.355C2175.86 250.193 2174.48 250.844 2172.2 252.309C2146.97 268.747 2128.42 279.001 2116.54 283.07C2104.82 287.139 2097.9 287.302 2095.78 283.559C2093.18 278.35 2096.43 270.294 2105.55 259.389C2114.66 248.321 2126.38 237.823 2140.71 227.895C2155.19 217.966 2169.03 212.025 2182.21 210.072C2195.39 207.956 2204.67 213.165 2210.04 225.697C2210.53 227.325 2210.29 228.79 2209.31 230.092C2208.33 231.394 2207.03 232.289 2205.4 232.777C2203.77 233.266 2201.9 232.94 2199.79 231.801C2197.83 230.661 2196.45 229.278 2195.64 227.65C2195.64 227.325 2195.72 226.999 2195.88 226.674C2196.04 226.348 2196.21 226.023 2196.37 225.697C2196.53 225.372 2196.69 225.046 2196.86 224.721C2197.02 224.395 2197.02 224.07 2196.86 223.744C2192.79 218.21 2185.79 217.396 2175.86 221.303C2165.93 225.209 2155.43 231.312 2144.37 239.613C2133.3 247.914 2123.94 255.808 2116.29 263.295C2108.64 270.619 2105.06 275.095 2105.55 276.723C2106.2 278.35 2112.63 275.665 2124.84 268.666C2137.04 261.667 2157.06 248.565 2184.89 229.359C2186.36 228.546 2187.82 228.301 2189.29 228.627C2190.92 228.79 2192.22 229.604 2193.2 231.068C2194.33 233.021 2194.42 234.975 2193.44 236.928C2187.25 250.274 2186.52 258.493 2191.24 261.586C2196.12 264.678 2203.04 264.923 2211.99 262.318C2221.11 259.714 2228.92 256.54 2235.43 252.797Z" fill="white"/>
</svg>
